<svg viewBox="0 0 512 512" class="arcade-machine"
	xmlns="http://www.w3.org/2000/svg" fill-rule="evenodd" clip-rule="evenodd" stroke-linejoin="round" stroke-miterlimit="1.414">
	<path fill="#501358" d="M136 302h239v197H136z"/>
	<path fill="#910e07" d="M137 278h239v21H137z"/>
	<path fill="#1fccbe" d="M138 6h236v68H138z"/>
	<path fill="#10786f" d="M145 77h224v69H145z"/>
	<path fill="#10786f" d="M139 85h237v189H139z"/>
	<path d="M224 20h62c10.957 0 18 10.139 18 18 0 7.861-2.857 21-18 21s-19.012-7.936-19-8c.012-.064-23 0-23 0s-3.9 8.216-16 8c-12.1-.216-20-9.535-20-20s6.97-18.153 16-19z" fill="#72b500"/>
	<path d="M337.778 151H176.267l-17.378 92h194.222l-15.333-92z" fill="#aaa"/>
	<circle cx="255.5" cy="235.5" r="7.5" fill="#fff"/>
	<path fill="#ce3488" d="M185 263h22v11h-22z"/>
	<path fill="#eab835" d="M305 262h22v11h-22z"/>
	<circle cx="208.5" cy="363.5" r="7.5" fill="#1fccbe"/>
	<circle cx="256.5" cy="235.5" r="7.5" fill="#1fccbe"/>
	<circle cx="296.5" cy="363.5" r="14.5" fill="#eab835"/>
	<path d="M375.804 0H135.926c-2.192 0-3.995 1.803-3.995 3.995V4c0 2.192 1.804 3.996 3.996 3.996H375.807c2.192 0 3.995-1.803 3.995-3.995v-.003-.003c0-2.192-1.803-3.995-3.995-3.995h-.003zm-7.995 71.962H143.922c-2.192 0-3.995 1.803-3.995 3.995v.005c0 2.192 1.804 3.996 3.996 3.996H367.81c2.193 0 3.997-1.804 3.997-3.997v-.004c0-2.192-1.803-3.995-3.995-3.995h-.003zm7.995 423.78H135.926c-2.192 0-3.995 1.803-3.995 3.995v.005c0 2.192 1.804 3.996 3.996 3.996H375.807c2.192 0 3.995-1.803 3.995-3.995v-.003-.003c0-2.192-1.803-3.995-3.995-3.995h-.003z" fill-rule="nonzero"/>
	<path d="M359.812 495.742h-.002c-2.192 0-3.996 1.804-3.996 3.996v8c0 2.192 1.804 3.996 3.996 3.996h.005c2.192 0 3.995-1.803 3.995-3.995V499.74v-.003c0-2.192-1.803-3.995-3.995-3.995h-.003zm-207.891 0h-.003c-2.192 0-3.995 1.803-3.995 3.995V507.736a3.995 3.995 0 0 0 3.998 3.998 3.995 3.995 0 0 0 3.998-3.998v-7.996-.003c0-2.192-1.803-3.995-3.995-3.995h-.003zM375.804 271.86H135.926c-2.192 0-3.995 1.803-3.995 3.995V299.846c0 2.192 1.804 3.996 3.996 3.996H375.807c2.192 0 3.995-1.803 3.995-3.995v-23.99-.002c0-2.192-1.803-3.995-3.995-3.995h-.003zm-3.998 23.986H139.927v-15.992h231.879v15.992zM135.929 0h-.003c-2.192 0-3.995 1.803-3.995 3.995V267.862c0 2.193 1.804 3.997 3.997 3.997h.003c2.192 0 3.996-1.804 3.996-3.996V3.998v-.003c0-2.192-1.803-3.995-3.995-3.995h-.003zm239.876 0h-.003c-2.192 0-3.995 1.803-3.995 3.995v263.868c0 2.192 1.804 3.996 3.996 3.996h.003c2.193 0 3.997-1.804 3.997-3.997V3.998v-.003C379.803 1.803 378 0 375.808 0h-.003zM135.929 303.842h-.002c-2.192 0-3.996 1.804-3.996 3.996V499.742c0 2.192 1.804 3.996 3.996 3.996h.005c2.192 0 3.995-1.803 3.995-3.995V307.84v-.002c0-2.192-1.804-3.996-3.996-3.996h-.002zm239.876 0h-.002c-2.192 0-3.996 1.804-3.996 3.996v191.905c0 2.192 1.803 3.995 3.995 3.995h.005c2.192 0 3.996-1.804 3.996-3.996V307.84v-.002c0-2.192-1.804-3.996-3.996-3.996h-.002zm-20.047-60.625l-15.991-95.95a4.012 4.012 0 0 0-3.943-3.342H175.907a4.007 4.007 0 0 0-3.943 3.342l-15.991 95.95a4.008 4.008 0 0 0 3.287 4.599c2.171.379 4.241-1.108 4.6-3.287l15.433-92.608h153.143l15.438 92.608c.319 1.956 2.022 3.342 3.943 3.342h.003c2.191 0 3.993-1.803 3.993-3.993 0-.221-.018-.443-.055-.661z" fill-rule="nonzero"/>
	<path d="M255.867 239.875h-.002c-2.192 0-3.996 1.804-3.996 3.996V259.868c0 2.192 1.803 3.995 3.995 3.995h.005c2.192 0 3.996-1.804 3.996-3.996V243.873v-.002c0-2.192-1.804-3.996-3.996-3.996h-.002z" fill-rule="nonzero"/>
	<path d="M255.867 223.883c-6.614 0-11.994 5.38-11.994 11.994s5.38 11.994 11.994 11.994c6.613 0 11.993-5.38 11.993-11.994s-5.38-11.994-11.993-11.994zm0 15.993c-2.193-.001-3.997-1.805-3.998-3.998.001-2.193 1.805-3.997 3.998-3.998a4.001 4.001 0 0 1 3.998 3.998 4.001 4.001 0 0 1-3.998 3.998zm0 15.991c-6.614 0-11.994 5.38-11.994 11.994a3.996 3.996 0 0 0 3.998 3.998 3.996 3.996 0 0 0 3.998-3.998c.003-2.192 1.806-3.995 3.998-3.998 2.192.003 3.995 1.806 3.998 3.998v.002c0 2.192 1.804 3.996 3.996 3.996h.003c2.192 0 3.996-1.804 3.996-3.996v-.002c0-6.614-5.38-11.994-11.993-11.994zm-47.976 0h-23.99c-2.192 0-3.995 1.803-3.995 3.995v.006c0 2.192 1.803 3.995 3.995 3.995h23.993c2.192 0 3.995-1.803 3.995-3.995v-.003-.003c0-2.192-1.803-3.995-3.995-3.995h-.003z" fill-rule="nonzero"/>
	<path d="M199.819 189.503h1.555v4.69h4.238v-4.69h1.556v11.441h-1.556v-5.449h-4.238v5.449h-1.555v-11.441z" fill="#72b500" fill-rule="nonzero"/>
	<path d="M201.47 187.505l.095.007.094.011.094.016.093.02.092.025.091.029.089.033.087.038.086.041.083.046.082.05.079.053.076.057.073.061.071.064.067.067.064.07.061.074.057.076.053.079.049.081.046.084.042.085.037.088.033.089.029.091.025.092.02.093.016.093.011.095.007.095.002.095v2.69h.238v-2.69l.002-.095.007-.095.011-.095.016-.093.02-.093.025-.092.029-.091.033-.089.038-.088.041-.085.046-.084.05-.081.053-.079.057-.076.061-.074.064-.07.067-.067.07-.064.074-.061.076-.057.079-.053.081-.05.084-.046.085-.041.088-.038.089-.033.091-.029.092-.025.093-.02.093-.016.095-.011.095-.007.095-.002h1.556l.095.002.095.007.094.011.094.016.093.02.092.025.091.029.089.033.087.038.086.041.084.046.081.05.079.053.076.057.073.061.071.064.067.067.064.07.061.074.057.076.053.079.05.081.045.084.042.085.037.088.034.089.029.091.024.092.02.093.016.093.012.095.006.095.003.095v11.441l-.003.095-.006.095-.012.094-.016.094-.02.093-.024.092-.029.091-.034.089-.037.088-.042.085-.045.084-.05.081-.053.079-.057.076-.061.074-.064.07-.067.067-.071.064-.073.061-.076.057-.079.053-.081.05-.084.045-.086.042-.087.038-.089.033-.091.029-.092.024-.093.021-.094.015-.094.012-.095.007-.095.002h-1.556l-.095-.002-.095-.007-.095-.012-.093-.015-.093-.021-.092-.024-.091-.029-.089-.033-.088-.038-.085-.042-.084-.045-.081-.05-.079-.053-.076-.057-.074-.061-.07-.064-.067-.067-.064-.07-.061-.074-.057-.076-.053-.079-.05-.081-.046-.084-.041-.085-.038-.088-.033-.089-.029-.091-.025-.092-.02-.093-.016-.094-.011-.094-.007-.095-.002-.095v-3.449h-.238v3.449l-.002.095-.007.095-.011.094-.016.094-.02.093-.025.092-.029.091-.033.089-.037.088-.042.085-.046.084-.049.081-.053.079-.057.076-.061.074-.064.07-.067.067-.071.064-.073.061-.076.057-.079.053-.082.05-.083.045-.086.042-.087.038-.089.033-.091.029-.092.024-.093.021-.094.015-.094.012-.095.007-.096.002h-1.555l-.095-.002-.095-.007-.095-.012-.094-.015-.093-.021-.092-.024-.09-.029-.089-.033-.088-.038-.086-.042-.083-.045-.081-.05-.079-.053-.076-.057-.074-.061-.07-.064-.068-.067-.064-.07-.06-.074-.057-.076-.054-.079-.049-.081-.046-.084-.041-.085-.038-.088-.033-.089-.029-.091-.025-.092-.02-.093-.016-.094-.011-.094-.007-.095-.002-.095v-11.441l.002-.095.007-.095.011-.095.016-.093.02-.093.025-.092.029-.091.033-.089.038-.088.041-.085.046-.084.049-.081.054-.079.057-.076.06-.074.064-.07.068-.067.07-.064.074-.061.076-.057.079-.053.081-.05.083-.046.086-.041.088-.038.089-.033.09-.029.092-.025.093-.02.094-.016.095-.011.095-.007.095-.002h1.555l.096.002zm-1.651 1.998v11.441h1.555v-5.449h4.238v5.449h1.556v-11.441h-1.556v4.69h-4.238v-4.69h-1.555z"/>
	<path d="M209.758 189.503h6.352v1.303h-2.398v8.835h2.398v1.303h-6.352v-1.303h2.398v-8.835h-2.398v-1.303z" fill="#72b500" fill-rule="nonzero"/>
	<path d="M216.205 187.505l.095.007.095.011.094.016.093.02.092.025.09.029.09.033.087.038.086.041.083.046.082.05.078.053.077.057.073.061.07.064.068.067.064.07.06.074.057.076.054.079.049.081.046.084.042.085.037.088.033.089.029.091.025.092.02.093.016.093.011.095.007.095.002.095v1.303l-.002.095-.007.095-.011.094-.016.094-.02.093-.025.092-.029.091-.033.089-.037.088-.042.085-.046.084-.049.081-.054.079-.057.076-.06.073-.064.071-.068.067-.07.064-.073.061-.077.057-.078.053-.082.05-.083.045-.086.042-.087.037-.09.034-.09.029-.092.024-.093.021-.094.015-.095.012-.095.006-.095.003h-.398v4.835h.398l.095.002.095.007.095.011.094.016.093.021.092.024.09.029.09.033.087.038.086.041.083.046.082.05.078.053.077.057.073.061.07.064.068.067.064.07.06.074.057.076.054.079.049.081.046.084.042.085.037.088.033.089.029.091.025.092.02.093.016.094.011.094.007.095.002.095v1.303l-.002.095-.007.095-.011.094-.016.094-.02.093-.025.092-.029.091-.033.089-.037.088-.042.085-.046.084-.049.081-.054.079-.057.076-.06.074-.064.07-.068.067-.07.064-.073.061-.077.057-.078.053-.082.05-.083.045-.086.042-.087.038-.09.033-.09.029-.092.024-.093.021-.094.015-.095.012-.095.007-.095.002h-6.352l-.095-.002-.095-.007-.095-.012-.094-.015-.093-.021-.092-.024-.09-.029-.09-.033-.087-.038-.086-.042-.083-.045-.082-.05-.078-.053-.077-.057-.073-.061-.07-.064-.068-.067-.064-.07-.06-.074-.057-.076-.054-.079-.049-.081-.046-.084-.042-.085-.037-.088-.033-.089-.029-.091-.025-.092-.02-.093-.016-.094-.011-.094-.007-.095-.002-.095v-1.303l.002-.095.007-.095.011-.094.016-.094.02-.093.025-.092.029-.091.033-.089.037-.088.042-.085.046-.084.049-.081.054-.079.057-.076.06-.074.064-.07.068-.067.07-.064.073-.061.077-.057.078-.053.082-.05.083-.046.086-.041.087-.038.09-.033.09-.029.092-.024.093-.021.094-.016.095-.011.095-.007.095-.002h.398v-4.835h-.398l-.095-.003-.095-.006-.095-.012-.094-.015-.093-.021-.092-.024-.09-.029-.09-.034-.087-.037-.086-.042-.083-.045-.082-.05-.078-.053-.077-.057-.073-.061-.07-.064-.068-.067-.064-.071-.06-.073-.057-.076-.054-.079-.049-.081-.046-.084-.042-.085-.037-.088-.033-.089-.029-.091-.025-.092-.02-.093-.016-.094-.011-.094-.007-.095-.002-.095v-1.303l.002-.095.007-.095.011-.095.016-.093.02-.093.025-.092.029-.091.033-.089.037-.088.042-.085.046-.084.049-.081.054-.079.057-.076.06-.074.064-.07.068-.067.07-.064.073-.061.077-.057.078-.053.082-.05.083-.046.086-.041.087-.038.09-.033.09-.029.092-.025.093-.02.094-.016.095-.011.095-.007.095-.002h6.352l.095.002zm-6.447 1.998v1.303h2.398v8.835h-2.398v1.303h6.352v-1.303h-2.398v-8.835h2.398v-1.303h-6.352z"/>
	<path d="M226.126 200.001a4.28 4.28 0 0 1-1.399.87 4.694 4.694 0 0 1-1.682.295c-1.451 0-2.58-.52-3.387-1.559-.807-1.04-1.211-2.497-1.211-4.372 0-1.87.409-3.327 1.227-4.372.817-1.044 1.954-1.567 3.41-1.567.48 0 .94.068 1.379.203.439.136.863.341 1.272.617v1.586c-.414-.393-.838-.683-1.272-.869a3.449 3.449 0 0 0-1.379-.28c-1.007 0-1.762.389-2.265 1.168-.503.78-.755 1.951-.755 3.514 0 1.589.244 2.765.732 3.529.488.763 1.238 1.145 2.249 1.145.343 0 .643-.039.901-.118.258-.08.491-.204.701-.372v-3.073h-1.663v-1.272h3.142v4.927z" fill="#72b500" fill-rule="nonzero"/>
	<path d="M223.209 187.297l.125.004.125.005.125.008.124.01.124.012.124.015.124.017.123.019.123.022.122.024.122.026.122.029.12.031.12.033.12.036.119.038.119.04.117.043.117.045.116.047.115.049.115.052.113.053.113.056.111.058.11.06.11.062.108.064.107.066.107.068.091.06.077.054.074.057.072.06.068.064.066.067.062.071.06.072.055.076.052.078.048.081.045.083.04.084.037.087.032.088.028.089.024.091.02.092.015.092.011.094.007.093.002.094v1.586l-.002.097-.007.096-.012.097-.016.095-.021.094-.026.094-.03.092-.034.09-.039.089-.042.086-.048.085-.051.082-.055.08-.058.077-.063.073-.066.071-.069.068-.072.064-.043.034.061.03.084.046.081.05.079.053.076.057.073.061.071.064.067.067.064.07.061.074.057.076.053.079.05.081.045.084.042.085.037.088.034.089.029.091.024.091.021.094.015.093.012.095.006.095.003.095v4.927l-.002.093-.007.093-.011.092-.015.091-.019.091-.023.09-.028.089-.032.087-.035.086-.04.084-.043.082-.047.079-.051.078-.055.075-.058.073-.061.07-.064.067-.067.063-.096.087-.115.099-.117.096-.119.094-.122.091-.123.087-.126.085-.128.082-.13.078-.131.075-.133.072-.135.069-.137.066-.139.062-.139.059-.142.055-.142.052-.144.049-.146.046-.146.041-.147.039-.149.035-.149.031-.15.028-.15.025-.151.021-.152.018-.152.015-.153.011-.153.008-.153.005-.149.001h-.095l-.09-.002-.09-.003-.09-.003-.09-.005-.089-.006-.09-.006-.089-.008-.088-.009-.089-.01-.089-.012-.088-.012-.088-.013-.088-.015-.087-.016-.087-.017-.088-.018-.086-.019-.087-.021-.086-.022-.086-.022-.085-.025-.085-.025-.085-.027-.084-.028-.084-.029-.083-.03-.083-.031-.083-.033-.082-.034-.081-.035-.081-.037-.081-.038-.079-.039-.079-.04-.079-.041-.078-.043-.077-.044-.077-.045-.076-.046-.074-.047-.075-.049-.074-.05-.072-.05-.072-.052-.072-.053-.07-.054-.07-.055-.068-.057-.068-.057-.067-.058-.066-.059-.065-.061-.065-.061-.063-.062-.063-.063-.061-.064-.061-.065-.059-.066-.059-.066-.058-.067-.057-.069-.056-.069-.055-.07-.054-.07-.053-.072-.052-.072-.051-.073-.05-.073-.05-.075-.048-.075-.047-.075-.047-.076-.045-.077-.045-.078-.043-.078-.043-.078-.041-.079-.04-.08-.04-.081-.039-.081-.037-.081-.037-.082-.036-.082-.035-.084-.033-.083-.033-.084-.033-.084-.031-.085-.03-.085-.029-.086-.03-.092-.053-.168-.05-.176-.047-.177-.044-.179-.041-.181-.037-.182-.034-.184-.03-.186-.028-.187-.024-.189-.022-.19-.018-.192-.016-.193-.012-.196-.01-.197-.007-.198-.004-.2-.002-.202.002-.202.004-.2.007-.199.01-.196.013-.196.015-.193.019-.192.022-.191.025-.189.028-.187.031-.186.034-.184.038-.183.041-.181.044-.179.048-.178.05-.17.029-.093.027-.086.029-.087.03-.086.031-.086.031-.084.033-.085.033-.084.034-.084.036-.083.036-.082.037-.083.038-.081.039-.081.04-.08.041-.08.042-.08.043-.078.044-.078.045-.078.046-.077.047-.076.048-.076.048-.075.05-.074.051-.074.052-.073.052-.072.054-.071.054-.071.056-.07.056-.069.057-.068.059-.068.059-.066.06-.066.061-.065.062-.064.062-.063.064-.062.065-.062.065-.06.067-.059.067-.058.068-.057.069-.057.07-.055.071-.054.071-.053.073-.052.073-.051.074-.049.074-.049.075-.047.077-.046.077-.046.077-.043.078-.043.079-.041.079-.041.08-.039.081-.038.081-.036.082-.035.082-.034.083-.033.083-.032.084-.03.084-.029.084-.028.085-.027.086-.025.085-.025.086-.023.086-.021.087-.021.087-.019.087-.019.088-.017.088-.015.088-.015.088-.014.089-.012.088-.011.089-.01.09-.009.089-.008.09-.007.089-.006.09-.005.09-.003.091-.003.09-.001.094-.001.122.001zm-.193 2l-.068.001-.067.002-.067.002-.066.004-.066.004-.065.005-.064.006-.065.006-.064.007-.063.008-.063.009-.062.01-.062.01-.062.011-.061.012-.06.013-.06.013-.06.014-.059.015-.059.016-.058.016-.057.018-.058.018-.056.018-.057.02-.056.02-.055.021-.055.022-.054.022-.054.024-.054.024-.053.025-.053.025-.052.027-.051.027-.051.028-.051.029-.05.029-.05.03-.049.031-.049.032-.049.033-.048.033-.047.034-.047.035-.047.035-.046.037-.045.037-.045.038-.045.038-.044.04-.044.04-.043.041-.043.041-.042.043-.042.043-.041.044-.041.045-.04.045-.04.047-.04.047-.039.048-.038.048-.038.049-.038.05-.037.051-.036.051-.036.052-.035.052-.034.053-.034.053-.033.054-.033.055-.032.055-.031.056-.031.057-.03.057-.03.058-.029.058-.028.059-.028.06-.027.06-.027.06-.026.062-.025.062-.025.062-.025.064-.023.063-.023.065-.023.065-.022.065-.021.066-.02.067-.04.136-.037.138-.035.14-.032.142-.03.145-.028.148-.025.15-.023.152-.02.155-.018.157-.015.16-.014.162-.01.164-.009.167-.006.169-.003.172-.002.174.002.174.003.173.006.169.008.167.011.165.013.162.015.16.018.158.02.155.023.152.025.15.027.148.029.145.032.143.035.14.036.138.039.135.042.133.021.066.022.065.023.064.023.064.024.063.025.062.025.062.026.062.026.06.027.06.027.06.029.059.028.058.029.057.03.057.031.057.031.056.031.055.033.054.032.054.034.054.034.052.034.052.036.052.035.051.037.05.037.05.037.049.038.048.039.048.039.046.039.046.04.046.041.044.041.044.041.043.042.042.042.042.043.041.043.04.044.039.044.038.045.038.045.037.046.036.046.035.046.035.047.034.048.033.048.032.048.032.049.031.049.03.05.029.051.029.05.028.052.027.051.026.053.025.052.025.054.024.053.023.054.023.055.022.055.021.055.02.056.019.057.019.057.018.057.017.058.016.058.016.059.015.059.014.06.013.06.013.061.011.061.011.062.011.062.009.063.009.063.008.063.007.064.007.065.005.065.005.065.005.066.003.066.003.067.002.067.001h.068l.113-.001.111-.004.111-.005.109-.008.109-.011.108-.012.106-.015.106-.018.105-.019.103-.022.103-.024.101-.027.101-.029.1-.031.099-.033.097-.036.097-.038.095-.04.094-.042.093-.045.092-.047.091-.049.089-.051.088-.053.087-.055.085-.058.084-.06.084-.062.081-.064.081-.066.08-.069.078-.071v-4.927h-3.142v1.272h1.663v3.073l-.04.031-.04.03-.041.029-.041.028-.042.027-.042.026-.043.024-.044.024-.044.023-.044.022-.046.02-.045.02-.047.018-.047.018-.047.016-.048.016-.049.014-.05.013-.051.013-.052.012-.053.01-.053.01-.055.009-.056.008-.057.007-.057.006-.059.005-.06.004-.061.003-.061.002-.063.002h-.064l-.094-.001-.092-.003-.091-.006-.09-.008-.088-.01-.086-.012-.085-.014-.083-.017-.082-.019-.08-.022-.079-.023-.077-.026-.076-.028-.074-.03-.073-.032-.071-.035-.069-.037-.068-.039-.067-.042-.065-.043-.063-.046-.062-.048-.06-.05-.059-.053-.057-.055-.056-.057-.054-.059-.053-.062-.051-.064-.049-.066-.048-.068-.047-.07-.045-.073-.043-.075-.043-.078-.04-.08-.04-.083-.038-.084-.036-.088-.035-.089-.034-.093-.032-.094-.03-.097-.03-.1-.028-.101-.026-.105-.025-.106-.024-.109-.022-.112-.021-.114-.019-.116-.018-.119-.016-.121-.015-.123-.014-.126-.012-.129-.011-.131-.009-.133-.008-.136-.006-.138-.005-.14-.004-.143-.002-.145-.001-.148.001-.145.002-.144.004-.14.005-.139.007-.136.008-.134.009-.132.012-.129.012-.127.014-.125.016-.122.017-.12.018-.118.02-.116.021-.113.023-.111.024-.109.026-.106.027-.104.029-.102.03-.099.032-.097.033-.095.035-.093.036-.09.038-.088.039-.086.04-.083.042-.081.044-.079.045-.076.046-.075.048-.071.049-.07.051-.067.053-.065.053-.063.056-.061.057-.058.058-.056.059-.053.062-.052.062-.049.064-.047.066-.044.067-.042.069-.04.07-.038.071-.035.073-.033.075-.031.076-.029.077-.026.079-.024.08-.022.082-.019.083-.017.085-.015.086-.013.088-.01.089-.008.091-.006.092-.003.094-.001.09.001.09.003.09.006.089.007.088.01.088.012.087.014.086.017.086.018.086.021.084.023.084.025.084.028.083.029.082.032.082.034.081.036.081.038.081.041.081.044.08.046.08.048.08.051.08.053.079.055.079.058.079.061.079.063.078.065.078.068.078.07.078.072v-1.586l-.077-.051-.077-.049-.078-.048-.077-.046-.079-.044-.078-.043-.079-.041-.08-.039-.079-.038-.08-.036-.081-.034-.08-.033-.082-.031-.081-.03-.082-.028-.082-.026-.083-.024-.083-.023-.083-.022-.084-.02-.085-.018-.085-.017-.085-.015-.086-.013-.087-.012-.087-.01-.087-.009-.088-.007-.088-.006-.089-.004-.09-.002-.089-.001-.068.001zm.023 3.257l-.041.001-.039.003-.036.003-.032.004-.03.004-.028.005-.025.005-.023.005-.02.006-.018.005-.016.006-.015.005-.013.006-.012.005-.011.005-.01.006-.009.005-.01.006-.009.006-.008.007-.009.007-.01.008-.01.009-.011.01-.011.012-.012.013-.013.015-.013.017-.015.019-.015.021-.016.024-.016.026-.017.029-.018.033-.018.034-.019.039-.019.041-.019.045-.019.047-.019.052-.012.033.007-.002.09-.029.092-.025.093-.02.094-.016.095-.011.095-.007.095-.002h1.288l-.016-.015-.049-.042-.048-.04-.047-.038-.046-.035-.045-.033-.043-.03-.042-.028-.042-.026-.039-.024-.039-.022-.037-.021-.036-.018-.035-.016-.035-.016-.034-.014-.035-.013-.034-.013-.035-.011-.034-.01-.035-.01-.036-.008-.035-.008-.036-.007-.037-.006-.037-.005-.039-.004-.039-.004-.04-.002-.041-.001-.042-.001-.045.001z"/>
	<path d="M228.164 189.503h1.556v4.69h4.237v-4.69h1.556v11.441h-1.556v-5.449h-4.237v5.449h-1.556v-11.441z" fill="#72b500" fill-rule="nonzero"/>
	<path d="M229.815 187.505l.095.007.094.011.094.016.093.02.092.025.091.029.089.033.088.038.085.041.084.046.081.05.079.053.076.057.073.061.071.064.067.067.064.07.061.074.057.076.053.079.05.081.045.084.042.085.037.088.034.089.029.091.024.092.021.093.015.093.012.095.006.095.003.095v2.69h.237v-2.69l.003-.095.006-.095.012-.095.015-.093.021-.093.024-.092.029-.091.034-.089.037-.088.042-.085.045-.084.05-.081.053-.079.057-.076.061-.074.064-.07.067-.067.071-.064.073-.061.076-.057.079-.053.081-.05.084-.046.085-.041.088-.038.089-.033.091-.029.092-.025.093-.02.094-.016.094-.011.095-.007.095-.002h1.556l.095.002.095.007.094.011.094.016.093.02.092.025.091.029.089.033.088.038.085.041.084.046.081.05.079.053.076.057.074.061.07.064.067.067.064.07.061.074.057.076.053.079.05.081.046.084.041.085.038.088.033.089.029.091.024.092.021.093.016.093.011.095.007.095.002.095v11.441l-.002.095-.007.095-.011.094-.016.094-.021.093-.024.092-.029.091-.033.089-.038.088-.041.085-.046.084-.05.081-.053.079-.057.076-.061.074-.064.07-.067.067-.07.064-.074.061-.076.057-.079.053-.081.05-.084.045-.085.042-.088.038-.089.033-.091.029-.092.024-.093.021-.094.015-.094.012-.095.007-.095.002h-1.556l-.095-.002-.095-.007-.094-.012-.094-.015-.093-.021-.092-.024-.091-.029-.089-.033-.088-.038-.085-.042-.084-.045-.081-.05-.079-.053-.076-.057-.073-.061-.071-.064-.067-.067-.064-.07-.061-.074-.057-.076-.053-.079-.05-.081-.045-.084-.042-.085-.037-.088-.034-.089-.029-.091-.024-.092-.021-.093-.015-.094-.012-.094-.006-.095-.003-.095v-3.449h-.237v3.449l-.003.095-.006.095-.012.094-.015.094-.021.093-.024.092-.029.091-.034.089-.037.088-.042.085-.045.084-.05.081-.053.079-.057.076-.061.074-.064.07-.067.067-.071.064-.073.061-.076.057-.079.053-.081.05-.084.045-.085.042-.088.038-.089.033-.091.029-.092.024-.093.021-.094.015-.094.012-.095.007-.095.002h-1.556l-.095-.002-.095-.007-.095-.012-.093-.015-.093-.021-.092-.024-.091-.029-.089-.033-.088-.038-.085-.042-.084-.045-.081-.05-.079-.053-.076-.057-.074-.061-.07-.064-.067-.067-.064-.07-.061-.074-.057-.076-.053-.079-.05-.081-.046-.084-.041-.085-.038-.088-.033-.089-.029-.091-.025-.092-.02-.093-.016-.094-.011-.094-.007-.095-.002-.095v-11.441l.002-.095.007-.095.011-.095.016-.093.02-.093.025-.092.029-.091.033-.089.038-.088.041-.085.046-.084.05-.081.053-.079.057-.076.061-.074.064-.07.067-.067.07-.064.074-.061.076-.057.079-.053.081-.05.084-.046.085-.041.088-.038.089-.033.091-.029.092-.025.093-.02.093-.016.095-.011.095-.007.095-.002h1.556l.095.002zm-1.651 1.998v11.441h1.556v-5.449h4.237v5.449h1.556v-11.441h-1.556v4.69h-4.237v-4.69h-1.556z"/>
	<path d="M253.766 189.894v1.571a6.083 6.083 0 0 0-1.414-.682 4.583 4.583 0 0 0-1.429-.23c-.73 0-1.308.17-1.732.509-.424.34-.636.799-.636 1.376 0 .506.139.891.418 1.157.278.266.798.488 1.559.667l.813.184c1.072.25 1.854.643 2.344 1.18.491.536.736 1.267.736 2.191 0 1.088-.337 1.919-1.011 2.491-.675.572-1.656.858-2.943.858a7.772 7.772 0 0 1-1.617-.172 9.058 9.058 0 0 1-1.632-.518v-1.647a7.634 7.634 0 0 0 1.667.82c.523.173 1.051.26 1.582.26.782 0 1.389-.175 1.824-.525.434-.35.651-.839.651-1.467 0-.572-.149-1.009-.448-1.31-.299-.302-.819-.534-1.56-.698l-.827-.191c-1.063-.24-1.834-.603-2.314-1.088-.481-.486-.721-1.137-.721-1.954 0-1.022.344-1.841 1.031-2.456.687-.616 1.6-.924 2.739-.924.44 0 .902.05 1.387.15.486.099.997.249 1.533.448z" fill="#72b500" fill-rule="nonzero"/>
	<path d="M250.957 187.297l.111.002.111.004.112.005.111.007.111.009.112.01.112.011.112.013.112.014.112.016.112.017.112.018.113.02.113.021.112.022.113.024.113.025.113.027.113.027.114.029.113.031.114.031.114.033.114.034.115.035.114.036.115.038.115.039.116.04.115.041.109.04.087.035.086.038.083.042.082.047.079.05.077.053.074.057.072.061.068.064.066.067.062.07.059.073.056.076.052.078.048.08.044.083.041.085.036.086.032.088.028.09.024.09.02.092.015.092.011.094.007.093.002.094v1.571l-.002.097-.007.096-.012.097-.017.095-.021.095-.025.094-.03.092-.035.09-.038.089-.044.087-.047.085-.051.082-.055.08-.06.077-.062.074-.067.071-.069.067-.073.064-.076.061-.078.056-.082.053-.083.049-.086.045-.089.041-.09.036-.091.032-.093.027-.095.023-.046.008.01.006.1.065.098.067.097.069.096.072.094.074.093.077.091.078.089.082.087.083.085.086.084.089.081.091.078.093.076.096.074.097.07.099.068.101.065.103.063.104.06.106.056.107.054.108.051.11.048.111.045.111.043.113.039.113.037.114.034.115.031.116.029.115.026.117.024.117.021.116.019.118.016.118.014.118.011.118.01.119.007.119.005.119.003.12.001.121-.001.139-.004.14-.007.14-.01.14-.013.139-.016.138-.02.139-.022.137-.026.138-.029.137-.033.136-.036.135-.04.134-.044.134-.048.133-.051.131-.055.13-.059.129-.062.127-.067.125-.07.123-.074.122-.078.119-.082.116-.085.115-.088.111-.092.109-.095.106-.098.102-.102.1-.104.097-.106.093-.11.09-.111.087-.115.083-.116.08-.119.077-.12.073-.122.07-.124.066-.125.063-.127.059-.128.057-.13.053-.13.05-.132.046-.133.044-.134.041-.134.037-.136.035-.137.032-.137.029-.138.027-.14.024-.14.022-.14.019-.142.016-.143.015-.143.012-.145.009-.145.008-.146.005-.147.003-.148.001-.127-.001-.128-.002-.127-.005-.128-.006-.127-.007-.127-.01-.127-.011-.128-.012-.127-.015-.127-.016-.127-.017-.126-.02-.127-.021-.127-.023-.126-.024-.126-.026-.126-.028-.126-.029-.126-.03-.125-.033-.126-.034-.125-.035-.125-.038-.124-.038-.125-.041-.124-.041-.124-.044-.124-.044-.123-.047-.124-.048-.123-.049-.112-.047-.086-.038-.085-.042-.082-.046-.08-.05-.077-.053-.075-.058-.073-.06-.069-.064-.066-.067-.063-.07-.059-.074-.056-.075-.053-.079-.048-.081-.045-.082-.041-.085-.037-.087-.032-.089-.029-.09-.024-.091-.02-.092-.015-.093-.011-.093-.007-.094-.002-.095v-1.647l.002-.097.007-.097.012-.096.016-.095.021-.095.026-.093.03-.092.034-.091.039-.088.043-.087.047-.085.051-.082.055-.079.059-.077.063-.074.066-.071.069-.068.072-.064.076-.06.078-.057.082-.053.083-.049.086-.045.088-.04.09-.037.091-.032.093-.027.094-.023.095-.018.096-.014.096-.009.097-.005.097.001.096.005.061.006-.054-.032-.097-.058-.097-.061-.096-.064-.094-.065-.093-.068-.092-.07-.09-.072-.089-.075-.087-.077-.086-.08-.083-.083-.081-.084-.079-.086-.077-.088-.074-.091-.072-.093-.069-.094-.067-.097-.064-.098-.062-.1-.058-.101-.056-.103-.053-.104-.05-.106-.047-.106-.045-.108-.041-.108-.039-.109-.036-.11-.033-.111-.03-.111-.028-.111-.025-.112-.022-.112-.02-.113-.017-.112-.014-.113-.013-.113-.01-.113-.007-.114-.006-.113-.003-.113-.001-.115.002-.136.004-.138.007-.137.011-.137.014-.137.017-.137.02-.136.024-.136.027-.135.03-.135.034-.134.038-.133.041-.132.044-.131.049-.13.052-.129.055-.127.059-.126.063-.124.066-.123.07-.12.073-.118.076-.117.08-.114.082-.112.086-.109.089-.107.091-.104.094-.102.097-.098.099-.097.102-.093.104-.091.106-.088.109-.085.111-.083.113-.079.115-.077.116-.073.119-.071.12-.067.122-.064.124-.062.125-.058.126-.055.128-.051.128-.049.13-.045.131-.043.132-.039.132-.036.134-.034.134-.03.135-.028.136-.024.136-.022.136-.019.138-.017.138-.013.138-.011.139-.009.139-.006.14-.004.139-.001.112.001zm-.217 2l-.105.003-.103.004-.102.007-.101.008-.1.01-.098.011-.097.014-.095.015-.094.017-.093.019-.092.021-.09.023-.089.024-.088.026-.086.028-.085.03-.083.031-.083.034-.081.035-.079.037-.079.039-.077.04-.075.043-.075.044-.073.046-.071.048-.071.049-.069.052-.068.053-.066.055-.065.057-.063.058-.062.059-.059.061-.058.062-.055.063-.053.064-.052.066-.049.066-.047.068-.046.069-.043.07-.041.072-.039.072-.038.074-.035.075-.033.076-.031.078-.029.078-.028.08-.025.081-.023.082-.021.083-.019.085-.017.085-.015.087-.014.088-.011.089-.009.091-.007.091-.005.093-.003.094-.001.096.001.076.002.075.004.074.005.073.006.072.008.072.009.07.01.069.012.069.014.067.014.067.017.065.017.064.019.064.021.063.021.061.024.061.024.059.026.059.028.058.028.056.031.056.031.055.033.053.035.053.036.052.037.051.039.05.04.049.041.048.043.047.045.046.045.045.048.044.049.044.051.043.053.042.054.042.057.04.057.041.06.039.061.039.063.038.065.037.066.036.068.036.07.035.071.035.073.033.075.033.077.032.078.032.08.031.082.03.083.029.085.029.087.028.089.027.09.026.092.026.094.025.095.024.097.024.099.023.827.191.137.032.131.033.126.034.061.018.06.019.058.019.057.019.056.019.055.02.053.021.052.02.05.022.05.021.048.022.047.023.045.022.044.024.043.023.042.024.04.025.039.024.038.026.036.025.036.026.033.027.033.027.031.027.03.028.029.028.027.028.027.03.026.03.025.031.024.032.023.032.022.034.022.034.02.035.02.036.019.036.018.038.017.038.016.039.016.04.014.04.014.042.012.042.012.043.011.043.01.045.009.045.009.046.007.047.007.048.005.048.005.05.004.05.003.051.002.051.002.053v.053l-.001.058-.001.058-.004.057-.004.056-.006.055-.007.055-.008.053-.01.053-.01.052-.013.051-.013.051-.015.049-.015.049-.018.048-.018.047-.02.046-.021.046-.022.044-.024.044-.024.043-.026.042-.028.042-.028.04-.03.04-.031.039-.033.038-.034.037-.035.037-.036.035-.037.035-.039.034-.04.033-.041.033-.043.031-.043.03-.044.029-.046.029-.046.027-.047.026-.049.025-.049.024-.05.023-.052.022-.052.021-.053.02-.055.019-.055.018-.057.017-.057.016-.059.015-.059.014-.061.013-.062.011-.062.011-.064.01-.064.009-.066.007-.067.007-.067.006-.069.004-.07.004-.071.002-.071.002h-.073l-.1-.001-.099-.003-.1-.005-.099-.007-.099-.009-.099-.011-.099-.014-.099-.015-.099-.017-.099-.019-.098-.022-.099-.023-.098-.026-.099-.027-.098-.03-.098-.031-.099-.034-.099-.036-.1-.038-.101-.041-.102-.043-.102-.046-.103-.047-.104-.05-.104-.053-.106-.055-.106-.057-.107-.059-.107-.062-.108-.064-.109-.066-.11-.069v1.647l.102.043.103.041.102.04.102.038.103.037.102.036.102.034.102.033.102.032.102.03.102.029.101.028.102.026.102.025.102.023.101.023.102.021.101.019.101.018.102.017.101.016.101.014.101.012.101.012.101.01.101.009.101.007.101.006.101.005.101.003.1.002.101.001.12-.001.118-.002.116-.004.114-.006.113-.008.111-.009.109-.011.107-.013.105-.014.104-.016.102-.017.1-.02.098-.021.097-.022.094-.025.093-.026.091-.027.089-.03.088-.031.086-.032.083-.035.083-.036.08-.037.078-.04.077-.041.075-.043.073-.044.071-.046.07-.048.067-.049.066-.051.065-.053.062-.055.06-.056.058-.057.057-.059.054-.06.052-.062.051-.064.048-.065.046-.066.045-.068.042-.07.041-.071.038-.072.037-.074.035-.076.032-.077.031-.079.028-.08.027-.081.025-.083.023-.085.02-.086.019-.088.017-.089.015-.091.012-.092.011-.093.009-.096.007-.096.005-.099.003-.099.001-.102-.001-.086-.002-.085-.003-.084-.005-.082-.007-.082-.008-.08-.009-.08-.011-.078-.012-.077-.014-.076-.015-.074-.016-.074-.018-.072-.02-.072-.021-.07-.022-.069-.024-.068-.025-.067-.026-.065-.028-.065-.03-.063-.031-.063-.032-.061-.034-.06-.035-.058-.037-.058-.038-.057-.039-.055-.041-.054-.043-.053-.043-.052-.046-.051-.046-.05-.049-.049-.05-.048-.052-.048-.054-.046-.055-.046-.057-.045-.059-.044-.061-.043-.062-.042-.064-.042-.065-.04-.067-.04-.07-.039-.07-.038-.073-.038-.074-.036-.076-.036-.077-.034-.079-.034-.081-.034-.083-.032-.084-.031-.086-.031-.088-.03-.09-.028-.091-.029-.093-.027-.094-.026-.097-.026-.098-.024-.099-.024-.813-.184-.14-.034-.134-.035-.128-.036-.123-.038-.118-.038-.111-.039-.106-.04-.051-.02-.049-.021-.049-.021-.046-.021-.045-.022-.044-.021-.042-.022-.041-.023-.04-.022-.038-.023-.037-.023-.035-.023-.034-.024-.032-.023-.031-.024-.03-.025-.028-.024-.027-.025-.026-.025-.025-.026-.024-.027-.023-.027-.022-.028-.022-.029-.021-.03-.02-.03-.019-.031-.018-.031-.018-.032-.017-.033-.016-.034-.015-.035-.014-.035-.013-.035-.013-.037-.012-.037-.011-.038-.01-.039-.009-.039-.009-.04-.008-.041-.007-.041-.006-.042-.005-.043-.005-.044-.003-.044-.003-.045-.002-.046-.001-.046-.001-.047.001-.054.002-.053.003-.052.004-.052.006-.051.007-.05.008-.05.009-.049.011-.048.011-.047.013-.047.015-.046.015-.046.017-.045.018-.044.019-.043.021-.043.021-.041.023-.042.025-.04.025-.04.027-.039.028-.039.029-.037.03-.038.032-.036.033-.036.034-.035.036-.034.036-.033.038-.033.039-.033.04-.031.042-.03.042-.03.042-.028.044-.027.045-.027.045-.025.047-.024.047-.024.049-.022.049-.022.05-.02.051-.019.052-.019.053-.017.053-.017.055-.015.055-.015.057-.013.057-.012.058-.012.059-.01.06-.01.061-.008.062-.008.062-.006.064-.006.064-.004.066-.004.066-.002.067-.002h.068l.09.001.09.002.09.005.09.006.089.008.09.01.089.012.09.013.089.016.089.017.089.019.089.02.089.023.089.024.089.026.088.028.089.029.088.032.089.033.088.035.089.036.088.038.089.04.088.042.088.044.089.045.088.047.088.049.089.05.088.052.088.054.088.056v-1.571l-.1-.037-.1-.036-.099-.034-.098-.033-.098-.032-.098-.031-.096-.03-.096-.029-.096-.027-.095-.026-.094-.025-.094-.024-.093-.023-.092-.022-.092-.02-.092-.019-.09-.019-.09-.016-.09-.016-.089-.015-.089-.013-.088-.012-.087-.012-.087-.01-.087-.008-.086-.008-.085-.006-.085-.006-.084-.004-.084-.003-.083-.001-.083-.001-.106.001zm-1.935 8.142l.079.041.078.039.076.036.074.035.073.032.07.03.069.028.066.025.065.024.063.021.062.02.062.019.061.017.06.015.06.015.06.013.059.011.06.011.059.009.059.008.058.006.059.006.058.004.059.003.058.002H250.515l.043-.001.04-.001.04-.002.035-.003-.068-.017-.117-.027-.828-.192-.11-.025-.118-.029-.117-.03-.117-.031-.115-.032-.114-.034-.113-.034-.071-.023.02.011z"/>
	<path d="M263.682 200.538a5.403 5.403 0 0 1-1.211.471 5.343 5.343 0 0 1-1.318.157c-1.466 0-2.604-.518-3.414-1.556-.809-1.037-1.214-2.495-1.214-4.375 0-1.87.407-3.327 1.222-4.372.815-1.044 1.95-1.567 3.406-1.567.465 0 .904.053 1.318.157.414.105.818.262 1.211.472v1.586a4.276 4.276 0 0 0-1.219-.713 3.704 3.704 0 0 0-1.31-.245c-1.006 0-1.76.388-2.26 1.165-.501.776-.751 1.949-.751 3.517 0 1.563.25 2.733.751 3.51.5.776 1.254 1.164 2.26 1.164.45 0 .89-.081 1.322-.245a4.167 4.167 0 0 0 1.207-.713v1.587z" fill="#72b500" fill-rule="nonzero"/>
	<path d="M261.268 187.297l.115.002.115.004.115.006.114.008.114.009.114.011.113.012.113.015.113.016.112.018.112.02.112.021.111.023.111.025.109.027.108.028.108.03.106.032.107.033.105.035.106.036.104.038.105.04.103.041.103.043.103.044.102.046.101.048.1.049.101.05.086.046.083.045.081.05.078.054.075.057.073.06.07.064.066.068.064.07.06.073.056.076.053.079.049.081.045.083.041.085.037.087.033.089.029.09.024.092.02.092.016.093.011.094.007.095.002.095v1.586l-.002.095-.007.096-.012.095-.016.094-.02.094-.025.092-.029.092-.034.089-.038.088-.042.086-.046.084-.05.082-.054.079-.058.076-.061.074-.065.07-.068.068-.071.064-.074.061-.077.056-.08.054-.082.049-.084.045-.087.042-.088.037-.09.033-.091.028-.093.024-.094.02-.094.015-.096.01-.095.006-.096.002-.096-.004-.095-.007-.095-.013-.094-.017-.094-.021-.092-.026-.091-.03-.089-.034-.088-.039-.085-.043-.084-.047-.081-.051-.079-.054-.075-.059-.057-.045-.041-.032-.041-.031-.04-.029-.041-.028-.04-.026-.041-.025-.04-.025-.04-.023-.041-.022-.04-.02-.041-.02-.04-.019-.041-.018-.041-.017-.042-.016-.041-.015-.041-.014-.041-.013-.04-.012-.039-.01-.038-.01-.038-.008-.038-.008-.037-.006-.036-.006-.037-.005-.036-.003-.036-.003-.036-.002-.035-.002h-.035l-.045.001-.042.001-.039.003-.036.003-.032.004-.031.004-.027.005-.025.005-.023.005-.02.006-.018.005-.017.006-.014.005-.013.006-.012.005-.011.005-.009.005-.01.006-.008.005-.009.006-.009.007-.009.007-.009.007-.009.009-.011.01-.011.011-.011.013-.013.014-.013.017-.014.018-.015.021-.015.024-.017.026-.016.028-.018.032-.018.035-.018.038-.019.04-.019.045-.019.048-.019.051-.019.054-.018.058-.019.061-.018.065-.018.068-.017.071-.017.075-.016.078-.015.082-.015.085-.013.088-.013.091-.012.095-.011.098-.01.101-.009.104-.007.108-.007.11-.005.114-.005.116-.003.12-.002.122v.251l.002.122.003.119.005.116.005.113.007.11.007.107.009.104.01.101.011.097.012.095.013.091.013.087.015.085.015.081.016.078.017.075.017.071.018.068.018.064.018.061.019.058.019.054.019.051.019.048.019.044.018.041.019.038.018.035.017.032.017.029.017.026.015.023.015.021.014.018.013.017.013.015.011.012.011.012.011.009.009.009.009.008.009.007.009.006.009.006.008.005.01.006.009.005.011.005.012.006.013.005.014.005.017.006.018.005.02.006.023.005.025.005.027.005.031.005.032.003.036.004.039.002.042.002H261.192l.038-.002.038-.002.038-.003.037-.004.038-.004.037-.006.038-.007.038-.007.038-.008.038-.01.038-.01.039-.011.04-.013.039-.014.041-.014.04-.016.04-.017.04-.017.039-.019.04-.019.039-.021.039-.021.04-.023.039-.024.039-.025.039-.026.04-.027.039-.028.04-.03.04-.032.055-.045.075-.059.079-.055.081-.052.083-.047.086-.044.088-.039.089-.035.091-.031.092-.026.094-.022.094-.018.095-.012.096-.009.096-.003.096.001.096.005.095.01.095.015.094.019.093.024.092.028.091.033.088.037.087.041.085.045.082.049.08.054.078.057.074.06.072.064.068.068.065.07.062.074.058.076.054.08.05.081.047.085.042.086.038.088.034.09.029.091.026.093.02.094.016.094.012.096.007.095.002.096v1.587l-.002.094-.007.095-.011.094-.016.093-.02.093-.024.091-.029.09-.033.089-.037.087-.041.085-.045.084-.049.081-.053.078-.056.076-.06.073-.064.071-.067.067-.069.064-.073.061-.075.057-.079.053-.08.05-.083.046-.086.045-.1.051-.101.049-.101.047-.102.046-.103.044-.103.043-.103.041-.105.04-.104.038-.105.037-.106.034-.107.034-.106.031-.108.03-.108.028-.109.027-.111.025-.111.023-.112.022-.112.019-.112.018-.113.016-.113.015-.113.012-.114.011-.114.009-.114.008-.115.006-.115.004-.115.002-.114.001h-.092l-.09-.002-.091-.002-.09-.004-.09-.005-.09-.005-.09-.007-.089-.008-.089-.009-.089-.01-.089-.011-.089-.012-.088-.014-.088-.014-.088-.016-.088-.017-.087-.018-.087-.019-.087-.02-.086-.022-.086-.023-.086-.024-.085-.025-.085-.026-.085-.028-.084-.029-.084-.03-.083-.031-.083-.033-.082-.033-.082-.036-.081-.036-.081-.037-.08-.039-.08-.04-.079-.041-.078-.043-.077-.043-.077-.045-.077-.046-.075-.047-.075-.048-.074-.05-.073-.051-.073-.051-.071-.053-.071-.054-.07-.055-.069-.056-.069-.057-.067-.059-.066-.059-.066-.06-.064-.061-.064-.062-.063-.063-.062-.064-.061-.065-.06-.066-.059-.066-.058-.068-.057-.068-.057-.069-.055-.07-.054-.07-.054-.072-.052-.072-.052-.073-.05-.073-.05-.074-.048-.075-.048-.076-.047-.076-.045-.077-.045-.078-.044-.078-.042-.079-.042-.079-.041-.08-.039-.08-.039-.081-.038-.082-.037-.082-.036-.082-.035-.083-.034-.084-.033-.084-.032-.084-.031-.085-.031-.086-.029-.086-.029-.086-.027-.087-.029-.092-.049-.171-.047-.178-.044-.179-.041-.181-.037-.183-.034-.184-.031-.186-.027-.187-.025-.189-.021-.191-.019-.192-.016-.194-.012-.196-.01-.197-.007-.199-.004-.201-.001-.202.001-.202.004-.2.007-.198.01-.197.013-.195.015-.194.019-.192.022-.19.025-.189.027-.187.032-.186.034-.184.037-.182.041-.181.044-.18.048-.177.05-.171.028-.092.028-.087.029-.086.029-.086.031-.086.031-.084.032-.085.034-.084.034-.084.035-.083.036-.082.037-.082.038-.082.039-.081.04-.08.041-.08.042-.079.042-.079.044-.078.045-.078.046-.077.047-.076.047-.076.049-.074.049-.075.051-.074.052-.073.052-.072.053-.071.055-.071.055-.07.056-.069.058-.068.058-.068.059-.066.06-.066.061-.065.061-.064.063-.064.064-.062.064-.061.066-.06.066-.059.067-.059.068-.057.069-.057.07-.055.071-.054.071-.053.073-.052.073-.051.073-.049.075-.049.075-.047.077-.047.076-.045.078-.044.078-.042.079-.042.079-.04.08-.039.081-.038.081-.037.081-.035.083-.034.082-.033.084-.032.083-.03.084-.029.085-.028.085-.027.085-.025.086-.024.086-.024.086-.021.087-.021.087-.019.087-.019.087-.017.088-.015.088-.015.089-.014.088-.012.089-.011.089-.01.089-.009.09-.008.089-.007.09-.006.09-.005.09-.003.09-.003.091-.001.091-.001.114.001zm-.183 2l-.067.001-.068.002-.066.002-.066.004-.066.004-.065.005-.065.006-.064.006-.064.007-.063.008-.063.009-.062.01-.062.01-.062.011-.061.012-.06.013-.06.013-.06.014-.059.015-.059.016-.058.016-.057.018-.058.018-.056.018-.057.02-.055.02-.056.021-.055.022-.054.022-.054.024-.053.024-.053.025-.053.025-.052.027-.052.027-.051.028-.05.029-.05.029-.05.03-.049.031-.049.032-.048.033-.048.033-.048.034-.046.035-.047.035-.046.037-.045.037-.045.038-.045.038-.044.04-.044.04-.043.041-.042.041-.042.043-.042.043-.041.044-.041.045-.041.045-.039.047-.04.047-.039.048-.038.048-.038.049-.037.05-.037.051-.036.051-.036.052-.035.052-.034.053-.034.053-.033.054-.032.055-.032.055-.031.056-.031.057-.03.057-.03.058-.029.058-.028.059-.028.06-.027.06-.027.06-.026.062-.025.062-.025.062-.024.064-.023.063-.023.065-.023.065-.022.065-.021.066-.02.067-.04.136-.037.138-.034.14-.033.142-.029.145-.028.148-.025.15-.023.152-.02.155-.018.157-.015.16-.013.162-.011.164-.009.167-.006.169-.003.172-.001.174.001.175.003.172.006.171.009.167.01.165.013.163.016.16.018.158.02.155.022.153.025.15.027.148.03.145.032.143.035.141.036.138.039.135.021.067.021.066.022.066.022.065.023.064.023.064.024.063.025.063.025.061.026.062.026.06.027.06.028.06.028.059.029.058.029.057.03.057.03.057.032.055.031.055.033.055.033.054.033.053.034.053.035.052.035.051.036.051.037.05.037.05.037.048.038.049.039.047.039.047.04.046.04.045.041.044.041.044.041.043.042.042.043.042.043.04.043.04.044.039.045.039.045.037.045.037.046.036.046.035.047.035.048.034.047.033.049.032.048.032.05.03.049.03.051.03.05.028.051.028.052.027.052.026.053.025.053.025.054.024.054.023.054.023.055.021.056.021.056.02.056.02.057.018.058.018.057.017.059.017.059.015.059.015.06.014.06.013.061.013.061.012.062.011.062.01.063.009.063.009.064.008.064.007.065.007.065.005.065.005.066.005.067.003.067.003.068.002.068.001h.068l.087-.001.086-.001.086-.003.085-.005.084-.005.084-.007.084-.008.082-.009.082-.011.082-.011.081-.013.08-.014.08-.016.079-.016.078-.018.078-.019.078-.02.077-.022.077-.022.077-.024.076-.026.076-.026.076-.028.076-.028.076-.03.075-.032.075-.032.075-.034.075-.035.074-.036.074-.038.074-.038v-1.587l-.07.058-.071.056-.072.054-.072.052-.073.051-.074.049-.074.047-.076.045-.075.044-.077.042-.077.04-.078.039-.078.036-.08.035-.079.034-.081.031-.081.03-.081.028-.082.025-.081.024-.082.022-.082.021-.083.018-.082.016-.083.014-.083.013-.083.01-.083.009-.084.007-.084.004-.084.003-.084.001-.094-.001-.092-.003-.09-.006-.089-.008-.088-.01-.086-.013-.085-.014-.083-.017-.082-.02-.08-.021-.079-.024-.077-.026-.076-.029-.075-.031-.072-.033-.072-.035-.07-.037-.068-.04-.067-.042-.066-.045-.064-.046-.062-.049-.061-.051-.06-.054-.058-.056-.056-.058-.055-.06-.054-.062-.052-.065-.051-.067-.049-.07-.047-.071-.047-.074-.044-.077-.044-.078-.041-.081-.041-.083-.039-.086-.037-.087-.036-.091-.034-.092-.033-.095-.032-.097-.03-.099-.029-.102-.027-.103-.025-.107-.025-.108-.022-.111-.022-.113-.019-.116-.019-.117-.017-.12-.015-.123-.014-.124-.013-.127-.011-.13-.009-.131-.008-.134-.007-.136-.005-.139-.004-.141-.002-.143v-.291l.002-.143.004-.142.005-.139.007-.136.008-.135.009-.131.011-.13.013-.127.014-.125.015-.123.017-.12.019-.118.019-.116.022-.114.022-.111.025-.108.025-.107.027-.104.029-.102.03-.099.032-.097.033-.095.034-.093.036-.09.037-.088.039-.085.041-.084.041-.081.044-.078.044-.076.047-.074.047-.072.049-.069.051-.068.052-.064.054-.063.055-.06.056-.058.058-.056.06-.053.061-.052.062-.049.064-.046.066-.045.067-.042.068-.039.07-.038.072-.035.072-.033.075-.031.076-.028.077-.026.079-.024.08-.022.082-.019.083-.017.085-.015.086-.013.088-.01.089-.008.09-.006.092-.003.094-.001.082.001.083.003.082.004.082.007.082.009.082.01.082.013.082.014.082.016.082.019.082.02.081.022.082.024.082.026.081.027.081.03.082.032.08.033.08.035.079.037.078.038.078.04.077.042.077.044.076.045.075.047.074.049.074.051.073.052.073.054.072.056.071.058v-1.586l-.074-.039-.074-.038-.074-.036-.075-.035-.075-.034-.075-.032-.075-.031-.076-.03-.076-.029-.076-.028-.076-.026-.076-.025-.077-.024-.077-.023-.077-.022-.078-.02-.078-.019-.078-.018-.079-.016-.08-.015-.08-.015-.081-.012-.082-.012-.082-.011-.082-.009-.084-.008-.084-.007-.084-.005-.085-.004-.086-.003-.086-.002-.087-.001-.068.001z"/>
	<g>
		<path d="M271.843 195.235c0-1.681-.173-2.881-.517-3.602-.345-.72-.911-1.08-1.698-1.08-.781 0-1.345.36-1.689 1.08-.345.721-.518 1.921-.518 3.602 0 1.676.173 2.874.518 3.594.344.72.908 1.08 1.689 1.08.787 0 1.353-.359 1.698-1.076.344-.718.517-1.917.517-3.598zm1.617 0c0 1.992-.316 3.479-.947 4.46-.63.981-1.592 1.471-2.885 1.471-1.292 0-2.253-.488-2.881-1.464-.628-.975-.942-2.464-.942-4.467 0-1.998.315-3.487.946-4.468.631-.98 1.59-1.471 2.877-1.471 1.293 0 2.255.491 2.885 1.471.631.981.947 2.47.947 4.468z" fill="#72b500" fill-rule="nonzero"/>
		<path d="M269.797 187.298l.168.006.161.01.09.007.083.008.084.009.082.01.084.012.083.012.082.014.083.015.082.016.082.017.082.018.081.02.082.021.08.022.081.023.08.025.08.026.08.028.08.028.078.03.079.031.077.033.078.034.077.035.076.036.076.038.075.039.074.041.074.041.073.043.072.044.072.046.071.047.069.047.069.049.069.051.067.051.066.053.066.053.064.055.064.056.063.057.061.057.06.059.06.06.059.061.057.062.056.062.056.063.054.065.054.065.052.066.051.066.05.068.049.068.048.069.047.069.046.071.044.07.044.071.043.072.041.073.041.073.04.073.038.074.041.081.07.145.069.153.066.155.062.157.059.158.056.161.052.163.049.164.047.166.043.168.041.17.038.172.035.174.033.176.03.178.028.179.025.182.023.184.02.186.019.188.016.19.013.192.012.195.009.196.008.199.005.201.003.204.001.206-.001.205-.003.204-.005.2-.008.199-.009.196-.012.194-.013.192-.016.19-.019.188-.02.185-.023.184-.025.181-.028.18-.03.177-.033.176-.035.173-.038.172-.041.17-.044.168-.046.166-.049.164-.053.163-.055.16-.059.159-.062.156-.066.155-.069.153-.073.151-.073.142-.043.08-.041.073-.041.072-.043.072-.044.071-.044.071-.046.07-.047.07-.048.068-.049.068-.05.068-.051.066-.052.066-.054.065-.054.065-.056.063-.056.063-.057.061-.059.061-.059.06-.061.059-.062.058-.062.057-.064.055-.064.055-.066.054-.066.052-.068.052-.068.05-.069.049-.07.048-.07.046-.072.046-.072.044-.073.043-.074.042-.074.04-.075.039-.076.038-.076.036-.077.035-.078.034-.077.033-.079.031-.079.03-.078.029-.08.027-.081.026-.08.025-.081.023-.08.022-.082.021-.081.02-.082.018-.082.018-.082.016-.083.014-.083.014-.082.012-.083.012-.084.01-.083.009-.083.008-.09.007-.161.01-.168.006-.169.002-.168-.002-.168-.006-.16-.01-.09-.007-.084-.008-.083-.009-.083-.01-.082-.011-.083-.012-.083-.014-.082-.015-.082-.016-.082-.017-.082-.018-.081-.02-.082-.02-.081-.023-.08-.023-.08-.024-.08-.026-.08-.027-.078-.029-.079-.03-.079-.031-.077-.032-.078-.034-.076-.035-.077-.036-.075-.038-.075-.039-.075-.04-.073-.041-.073-.043-.073-.044-.071-.045-.07-.047-.071-.047-.069-.049-.068-.05-.067-.052-.066-.052-.066-.053-.064-.055-.064-.056-.062-.056-.062-.058-.061-.059-.059-.059-.059-.061-.057-.061-.057-.063-.055-.063-.054-.064-.054-.065-.052-.066-.051-.066-.05-.068-.049-.068-.048-.068-.047-.07-.045-.07-.045-.07-.044-.071-.043-.072-.041-.073-.041-.073-.04-.073-.038-.074-.041-.081-.07-.145-.069-.153-.065-.154-.062-.157-.059-.159-.055-.16-.053-.163-.049-.164-.046-.166-.043-.168-.041-.17-.038-.172-.035-.174-.033-.176-.03-.178-.027-.179-.025-.182-.023-.184-.02-.186-.019-.188-.015-.19-.014-.193-.012-.194-.009-.197-.007-.2-.005-.201-.003-.204-.002-.206.002-.206.003-.204.005-.201.007-.199.009-.196.012-.195.014-.192.016-.19.018-.188.021-.186.022-.184.026-.181.027-.18.031-.178.032-.176.035-.174.038-.172.041-.17.044-.168.046-.166.049-.164.053-.163.055-.161.059-.158.062-.157.066-.155.069-.153.07-.145.041-.081.039-.074.039-.073.041-.073.042-.073.042-.072.044-.071.045-.071.046-.07.046-.069.048-.069.049-.068.05-.067.051-.067.052-.065.053-.066.054-.063.056-.064.056-.063.058-.061.058-.061.059-.06.061-.058.061-.058.063-.057.063-.056.065-.055.065-.053.066-.053.067-.051.068-.05.069-.05.07-.047.071-.047.071-.046.072-.044.073-.043.074-.041.074-.041.075-.039.076-.038.076-.036.076-.035.078-.034.077-.033.078-.031.079-.03.079-.029.08-.027.08-.026.08-.025.081-.024.08-.022.081-.021.082-.019.082-.019.082-.017.082-.016.082-.015.083-.014.082-.012.084-.011.082-.011.083-.009.084-.008.09-.007.16-.01.168-.006.168-.002.169.002zm-.288 2l-.118.004-.116.007-.057.005-.057.005-.056.006-.056.007-.055.008-.055.008-.055.009-.053.01-.054.01-.053.011-.052.012-.052.013-.051.013-.051.014-.051.015-.05.015-.049.016-.05.017-.048.018-.048.018-.048.019-.047.02-.047.02-.046.021-.045.022-.046.023-.044.023-.045.024-.043.025-.044.026-.042.026-.043.027-.042.027-.041.029-.041.029-.04.03-.04.03-.039.032-.039.032-.039.032-.038.034-.037.034-.037.035-.037.035-.036.036-.036.037-.035.038-.034.039-.034.039-.034.04-.033.04-.033.041-.032.043-.032.042-.031.044-.031.044-.03.045-.03.045-.029.047-.029.047-.029.048-.028.048-.027.05-.027.05-.027.051-.026.051-.051.105-.049.109-.047.111-.045.114-.044.118-.041.12-.04.123-.038.126-.036.13-.034.132-.032.135-.031.138-.029.141-.026.144-.025.147-.023.15-.022.153-.019.156-.018.159-.015.162-.014.165-.012.168-.01.171-.009.174-.006.177-.005.179-.003.183v.372l.003.183.005.181.006.177.009.174.01.171.012.168.013.166.016.162.018.159.019.156.021.153.023.15.025.148.027.144.028.141.031.138.032.135.034.132.036.129.037.126.04.123.041.12.044.117.045.114.047.111.049.108.05.105.026.052.027.05.027.05.027.049.028.049.028.047.029.047.029.046.03.046.03.044.031.044.031.044.031.042.033.042.032.041.033.04.034.04.034.039.034.038.036.038.035.037.036.036.037.035.037.035.037.034.038.033.038.032.039.032.04.031.04.031.04.029.041.029.041.029.042.027.043.027.042.026.044.025.044.025.044.024.045.023.045.023.046.021.046.022.047.02.047.02.048.018.048.019.048.017.05.017.049.016.05.015.051.015.051.014.052.013.052.013.052.012.053.011.054.01.054.01.054.009.055.008.056.007.056.007.056.006.057.006.058.004.116.007.118.005.12.001.121-.001.118-.005.116-.007.058-.005.056-.005.057-.006.056-.007.055-.007.055-.009.055-.009.054-.009.054-.011.053-.011.052-.012.052-.012.052-.014.051-.014.051-.014.05-.016.05-.016.049-.017.049-.017.048-.019.048-.019.047-.02.047-.02.046-.021.046-.022.045-.023.045-.023.044-.024.044-.025.043-.025.043-.027.043-.027.042-.027.041-.029.041-.029.041-.03.04-.03.039-.031.039-.032.039-.033.038-.033.037-.035.037-.034.037-.036.036-.036.036-.037.035-.038.034-.038.035-.04.033-.039.034-.041.032-.041.032-.042.032-.043.032-.044.03-.044.031-.045.029-.045.03-.047.029-.047.028-.048.028-.048.028-.049.027-.05.052-.103.051-.105.049-.108.047-.112.045-.114.044-.117.041-.12.04-.123.038-.126.036-.129.034-.132.033-.135.03-.138.029-.141.027-.144.025-.146.023-.15.021-.153.019-.155.018-.159.016-.162.014-.164.012-.168.01-.17.008-.174.006-.176.005-.179.003-.183.001-.185-.001-.186-.003-.183-.005-.179-.006-.177-.008-.174-.01-.171-.012-.168-.014-.165-.016-.162-.018-.159-.019-.156-.021-.153-.023-.15-.025-.147-.027-.144-.029-.141-.03-.138-.033-.135-.034-.132-.036-.13-.038-.126-.04-.123-.041-.12-.044-.118-.045-.114-.047-.111-.049-.109-.051-.105-.026-.051-.026-.051-.027-.05-.028-.05-.028-.048-.028-.048-.029-.047-.03-.047-.029-.045-.031-.045-.03-.044-.032-.044-.032-.042-.032-.043-.032-.041-.034-.04-.033-.04-.035-.039-.034-.039-.035-.038-.036-.037-.036-.036-.037-.035-.037-.035-.037-.034-.038-.034-.039-.032-.039-.032-.039-.032-.04-.03-.041-.03-.041-.029-.041-.029-.042-.027-.043-.027-.043-.026-.043-.026-.044-.025-.044-.024-.045-.023-.045-.023-.046-.022-.046-.021-.047-.02-.047-.02-.048-.019-.048-.018-.049-.018-.049-.017-.05-.016-.05-.015-.051-.015-.051-.014-.052-.013-.052-.013-.052-.012-.053-.011-.054-.01-.054-.01-.055-.009-.055-.008-.055-.008-.056-.007-.057-.006-.056-.005-.058-.005-.116-.007-.118-.004-.121-.002-.119.002zm.192 1.256l.072.003.071.005.069.008.068.009.067.012.065.014.064.015.063.018.061.02.06.023.059.024.058.026.056.029.055.03.054.033.052.035.051.037.05.039.049.041.047.043.046.046.044.047.044.05.042.051.04.054.04.056.038.058.037.06.035.063.035.064.033.066.031.069.031.072.03.075.029.077.028.08.026.083.026.086.025.089.024.091.022.094.022.097.021.1.02.103.018.106.018.108.017.111.015.114.015.117.014.119.012.123.012.125.01.128.01.131.009.133.007.137.007.139.005.142.005.145.003.148.003.15.001.154.001.156-.001.156-.001.153-.003.151-.003.148-.005.145-.005.142-.007.139-.007.136-.009.134-.01.131-.01.128-.012.125-.012.122-.014.119-.015.117-.015.114-.017.111-.018.108-.018.106-.02.102-.021.1-.022.097-.022.094-.024.091-.025.089-.026.085-.026.083-.028.08-.029.077-.03.074-.031.072-.031.069-.033.066-.035.064-.035.062-.037.06-.038.058-.04.056-.04.053-.042.052-.044.049-.044.047-.046.046-.047.043-.049.041-.05.039-.051.036-.052.035-.054.033-.055.03-.056.029-.058.026-.059.024-.06.022-.061.02-.063.018-.064.016-.065.013-.067.012-.068.01-.069.007-.071.005-.072.003-.073.001-.072-.001-.072-.003-.07-.005-.069-.008-.067-.009-.066-.012-.065-.013-.064-.016-.062-.018-.061-.02-.06-.022-.059-.025-.057-.026-.056-.028-.055-.031-.053-.033-.052-.035-.051-.037-.05-.039-.048-.041-.047-.043-.046-.045-.045-.048-.043-.049-.042-.052-.04-.054-.04-.056-.038-.058-.037-.06-.035-.062-.034-.065-.033-.066-.032-.069-.031-.072-.03-.074-.029-.078-.027-.08-.027-.083-.026-.085-.025-.089-.023-.091-.023-.094-.022-.097-.021-.1-.019-.103-.019-.105-.018-.108-.016-.111-.016-.114-.015-.116-.013-.119-.013-.122-.011-.125-.011-.128-.01-.131-.008-.133-.008-.136-.006-.139-.006-.142-.005-.144-.003-.147-.003-.15-.001-.153-.001-.156.001-.156.001-.154.003-.15.003-.148.005-.145.006-.142.006-.139.008-.137.008-.133.01-.131.011-.128.011-.125.013-.123.013-.119.015-.117.016-.114.016-.111.018-.108.019-.106.019-.103.021-.1.022-.097.023-.094.023-.091.025-.089.026-.086.027-.083.027-.08.029-.077.03-.075.031-.072.032-.069.033-.066.034-.064.035-.063.037-.06.038-.058.04-.056.04-.054.042-.051.043-.05.045-.047.046-.046.047-.043.048-.041.05-.039.051-.037.052-.035.053-.033.055-.03.056-.029.057-.026.059-.024.06-.023.061-.02.062-.018.064-.015.065-.014.066-.012.067-.009.069-.008.07-.005.072-.003.072-.001.073.001zm-.072 2.287l-.015.061-.015.066-.014.07-.014.074-.014.078-.014.082-.013.086-.012.091-.012.093-.011.098-.01.102-.01.105-.009.109-.008.112-.008.116-.006.119-.006.123-.005.127-.004.129-.003.134-.003.136-.001.14-.001.143.001.142.001.14.003.136.003.132.004.13.005.126.006.122.006.119.008.116.008.112.009.108.01.105.01.101.011.098.012.093.012.09.013.086.014.082.013.078.015.074.014.07.015.065.015.061.004.016.003-.011.014-.061.015-.065.015-.07.014-.074.014-.078.013-.082.013-.086.012-.09.012-.094.011-.097.011-.101.009-.106.009-.108.009-.113.007-.115.007-.12.006-.123.005-.126.004-.13.003-.133.002-.136.001-.14.001-.143-.001-.143-.001-.14-.002-.136-.003-.134-.004-.129-.005-.127-.006-.123-.007-.119-.007-.116-.009-.112-.009-.109-.009-.105-.011-.102-.011-.098-.012-.093-.012-.091-.013-.086-.013-.082-.014-.078-.015-.074-.014-.07-.015-.066-.014-.061-.004-.013-.003.013z"/>
	</g>
	<g>
		<path d="M280.18 195.541c.399.103.738.295 1.019.579.281.284.631.849 1.05 1.697l1.556 3.127h-1.663l-1.364-2.889c-.393-.823-.747-1.353-1.061-1.59-.315-.238-.725-.356-1.23-.356h-1.479v4.835h-1.556v-11.441h3.188c1.257 0 2.22.284 2.889.851.669.567 1.004 1.387 1.004 2.459 0 .757-.206 1.373-.617 1.851-.411.478-.99.77-1.736.877zm-3.172-4.766v4.061h1.693c.741 0 1.293-.166 1.655-.498.363-.332.545-.84.545-1.525 0-.659-.193-1.163-.579-1.513-.386-.35-.946-.525-1.682-.525h-1.632z" fill="#72b500" fill-rule="nonzero"/>
		<path d="M278.786 187.504l.144.003.144.005.143.008.142.01.142.011.14.015.14.016.139.019.138.022.137.024.137.026.136.03.135.032.134.034.133.038.132.041.131.043.131.047.129.049.127.053.127.056.125.059.124.063.123.066.12.069.119.072.117.076.115.079.113.083.111.086.108.089.106.092.103.096.101.099.097.102.095.105.092.108.088.11.084.114.082.115.077.119.074.12.07.123.067.124.062.126.059.128.055.129.051.13.047.132.044.133.04.133.036.135.033.135.029.136.026.136.022.137.019.137.016.138.013.138.01.138.007.139.004.139.002.138-.001.106-.003.105-.004.105-.007.105-.008.104-.011.105-.012.105-.015.104-.016.104-.019.104-.021.104-.024.103-.025.103-.028.103-.03.102-.033.101-.035.102-.038.101-.039.099-.043.099-.044.098-.047.097-.05.096-.052.095-.054.093-.057.093-.059.09-.061.09-.063.088-.065.086-.068.084-.011.013.049.083.083.146.083.151.083.155.084.16.085.166.082.165 1.556 3.128.04.086.036.087.032.089.028.09.023.092.019.093.015.093.01.094.005.094.002.095-.004.094-.007.094-.013.094-.016.093-.021.092-.025.092-.03.089-.034.089-.038.086-.042.085-.046.082-.049.081-.054.078-.057.075-.061.073-.064.069-.067.067-.07.063-.073.06-.076.056-.079.053-.081.049-.083.045-.085.041-.087.037-.088.032-.091.029-.091.024-.092.02-.094.016-.093.011-.095.007-.094.002h-1.663l-.094-.002-.094-.007-.094-.011-.092-.016-.092-.019-.091-.024-.09-.029-.089-.032-.086-.037-.085-.041-.083-.044-.081-.049-.078-.052-.076-.056-.073-.059-.07-.063-.067-.066-.064-.069-.061-.072-.057-.075-.053-.077-.05-.08-.046-.082-.043-.084-1.325-2.808v1.954l-.003.095-.006.095-.012.094-.015.094-.021.093-.024.092-.029.091-.034.089-.037.088-.042.085-.045.084-.05.081-.053.079-.057.076-.061.074-.064.07-.067.067-.071.064-.073.061-.076.057-.079.053-.081.05-.084.045-.085.042-.088.038-.089.033-.091.029-.092.024-.093.021-.094.015-.094.012-.095.007-.095.002h-1.556l-.095-.002-.095-.007-.094-.012-.094-.015-.093-.021-.092-.024-.091-.029-.089-.033-.088-.038-.085-.042-.084-.045-.081-.05-.079-.053-.076-.057-.074-.061-.07-.064-.067-.067-.064-.07-.061-.074-.057-.076-.053-.079-.05-.081-.046-.084-.041-.085-.038-.088-.033-.089-.029-.091-.024-.092-.021-.093-.015-.094-.012-.094-.007-.095-.002-.095v-11.441l.002-.095.007-.095.012-.095.015-.093.021-.093.024-.092.029-.091.033-.089.038-.088.041-.085.046-.084.05-.081.053-.079.057-.076.061-.074.064-.07.067-.067.07-.064.074-.061.076-.057.079-.053.081-.05.084-.046.085-.041.088-.038.089-.033.091-.029.092-.025.093-.02.094-.016.094-.011.095-.007.095-.002h3.195l.139.001zm-3.334 1.999v11.441h1.556v-4.835h1.479l.093.001.092.004.089.007.044.005.043.005.043.006.042.006.041.008.041.008.041.008.039.01.04.01.038.011.039.011.037.012.037.013.037.014.036.014.035.015.035.016.034.016.034.017.033.018.032.018.032.019.032.02.031.021.03.021.03.022.029.023.03.025.03.026.03.029.031.03.03.031.031.034.032.035.031.037.032.038.032.04.032.042.032.044.033.046.033.047.033.049.066.102.068.11.069.116.069.124.071.13.071.137.073.144.073.151 1.364 2.889h1.663l-1.556-3.127-.078-.155-.076-.149-.074-.143-.073-.136-.071-.129-.07-.123-.068-.116-.066-.109-.065-.103-.063-.096-.062-.09-.06-.082-.058-.077-.057-.069-.028-.033-.027-.031-.027-.029-.027-.027-.053-.052-.055-.05-.056-.048-.057-.046-.059-.043-.061-.042-.061-.039-.063-.037-.065-.035-.065-.033-.067-.031-.069-.029-.07-.027-.071-.024-.073-.022-.074-.021.07-.01.068-.012.068-.013.066-.013.066-.015.064-.016.064-.018.062-.018.062-.019.06-.02.06-.022.059-.022.057-.024.057-.025.056-.025.055-.027.053-.028.053-.029.052-.031.051-.031.049-.032.049-.033.048-.035.047-.035.046-.037.045-.038.044-.039.043-.04.042-.041.041-.042.04-.043.039-.044.038-.045.037-.046.035-.047.034-.048.034-.048.032-.049.03-.05.03-.051.028-.052.027-.053.026-.053.025-.054.023-.055.023-.056.021-.056.02-.058.018-.058.018-.059.016-.06.015-.061.014-.061.012-.063.012-.063.01-.064.009-.064.008-.066.007-.066.005-.068.004-.068.003-.068.002-.07.001-.071-.001-.099-.003-.099-.005-.097-.007-.095-.009-.094-.011-.092-.012-.091-.015-.09-.017-.088-.018-.086-.021-.085-.022-.084-.025-.082-.026-.08-.029-.08-.03-.077-.033-.076-.034-.075-.036-.073-.038-.072-.041-.07-.042-.069-.044-.067-.046-.066-.048-.064-.05-.063-.052-.061-.054-.06-.056-.058-.058-.057-.059-.055-.062-.054-.064-.053-.065-.05-.067-.049-.069-.048-.07-.045-.073-.044-.073-.043-.076-.041-.077-.039-.08-.037-.08-.036-.083-.034-.084-.032-.086-.031-.088-.029-.089-.027-.091-.026-.093-.024-.095-.023-.096-.02-.098-.019-.1-.018-.101-.016-.104-.014-.104-.012-.107-.011-.108-.009-.111-.008-.111-.005-.114-.005-.115-.002-.117-.001h-3.188zm3.256 1.273l.068.001.066.003.066.003.064.005.063.006.063.006.061.008.06.009.059.009.059.011.057.012.056.013.055.014.054.014.053.016.052.017.051.018.05.019.049.02.048.021.047.022.046.023.045.024.044.025.043.027.041.027.041.028.04.029.039.03.037.032.037.032.036.033.034.034.033.035.033.036.031.037.03.038.028.039.028.039.027.041.025.041.024.043.024.043.022.044.02.045.02.046.019.047.017.048.017.048.015.05.014.05.013.052.012.052.011.053.009.054.009.055.007.056.006.057.005.058.004.058.003.06.002.06.001.061-.001.064-.002.063-.002.061-.004.061-.005.059-.006.059-.007.057-.007.057-.01.055-.01.055-.011.053-.012.052-.013.051-.015.051-.015.049-.016.048-.018.047-.019.046-.019.045-.021.044-.022.043-.023.042-.024.041-.025.04-.026.039-.027.038-.028.037-.029.036-.03.034-.032.034-.032.033-.034.031-.034.031-.036.03-.037.028-.037.028-.039.027-.041.026-.041.024-.042.024-.043.023-.045.022-.046.021-.046.02-.048.019-.049.018-.05.017-.051.016-.053.015-.053.014-.055.013-.055.012-.057.012-.058.01-.059.009-.06.008-.061.008-.062.006-.063.005-.065.005-.065.003-.067.003-.068.001h-1.762v-4.061h1.632l.068.001z"/>
	</g>
	<g>
		<path d="M285.314 189.503h6.79v1.303h-5.242v3.387h5.012v1.302h-5.012v4.146h5.387v1.303h-6.935v-11.441z" fill="#72b500" fill-rule="nonzero"/>
		<path d="M292.199 187.505l.095.007.094.011.094.016.093.02.092.025.091.029.089.033.088.038.085.041.084.046.081.05.079.053.076.057.073.061.071.064.067.067.064.07.061.074.057.076.053.079.05.081.045.084.042.085.037.088.034.089.029.091.024.092.021.093.015.093.012.095.006.095.003.095v1.303l-.003.095-.006.095-.012.094-.015.094-.021.093-.024.092-.029.091-.034.089-.037.088-.042.085-.045.084-.05.081-.053.079-.057.076-.061.073-.064.071-.067.067-.071.064-.073.061-.076.057-.079.053-.081.05-.061.033.067.05.074.06.07.064.067.068.064.07.061.073.057.077.053.078.05.082.046.083.041.086.038.087.033.09.029.09.024.092.021.093.016.094.011.095.007.095.002.095v1.302l-.002.096-.007.095-.011.094-.016.094-.021.093-.024.092-.029.091-.033.089-.038.087-.041.086-.046.083-.05.082-.053.079-.057.076-.061.073-.064.071-.067.067-.07.064-.074.061-.076.057-.079.053-.081.05-.084.045-.085.042-.088.037-.089.033-.091.029-.092.025-.093.02-.094.016-.094.011-.095.007-.095.002h-3.012v.146h3.387l.096.002.094.007.095.011.094.016.093.021.092.024.09.029.09.033.087.038.086.041.083.046.082.05.078.053.077.057.073.061.071.064.067.067.064.07.06.074.058.076.053.079.049.081.046.084.042.085.037.088.033.089.029.091.025.092.02.093.016.094.011.094.007.095.002.095v1.303l-.002.095-.007.095-.011.094-.016.094-.02.093-.025.092-.029.091-.033.089-.037.088-.042.085-.046.084-.049.081-.053.079-.058.076-.06.074-.064.07-.067.067-.071.064-.073.061-.077.057-.078.053-.082.05-.083.045-.086.042-.087.038-.09.033-.09.029-.092.024-.093.021-.094.015-.095.012-.094.007-.096.002h-6.935l-.095-.002-.095-.007-.094-.012-.094-.015-.093-.021-.092-.024-.091-.029-.089-.033-.087-.038-.086-.042-.084-.045-.081-.05-.079-.053-.076-.057-.073-.061-.071-.064-.067-.067-.064-.07-.061-.074-.057-.076-.053-.079-.05-.081-.045-.084-.042-.085-.037-.088-.034-.089-.029-.091-.024-.092-.02-.093-.016-.094-.012-.094-.006-.095-.003-.095v-11.441l.003-.095.006-.095.012-.095.016-.093.02-.093.024-.092.029-.091.034-.089.037-.088.042-.085.045-.084.05-.081.053-.079.057-.076.061-.074.064-.07.067-.067.071-.064.073-.061.076-.057.079-.053.081-.05.084-.046.086-.041.087-.038.089-.033.091-.029.092-.025.093-.02.094-.016.094-.011.095-.007.095-.002h6.79l.095.002zm-6.885 1.998v11.441h6.935v-1.303h-5.387v-4.146h5.012v-1.302h-5.012v-3.387h5.242v-1.303h-6.79z"/>
	</g>
	<g>
		<path d="M297.207 189.503h1.556v5.019l-.161 2.736h-1.234l-.161-2.736v-5.019zm0 9.494h1.556v1.947h-1.556v-1.947z" fill="#72b500" fill-rule="nonzero"/>
		<path d="M298.858 187.505l.095.007.094.011.094.016.093.02.092.025.091.029.089.033.088.038.085.041.084.046.081.05.079.053.076.057.074.061.07.064.067.067.064.07.061.074.057.076.053.079.05.081.046.084.041.085.038.088.033.089.029.091.024.092.021.093.016.093.011.095.007.095.002.095v5.078l-.165 2.794-.007.095-.013.093-.016.093-.021.092-.025.091-.03.09-.013.033.022.035.046.084.041.086.038.087.033.089.029.091.024.092.021.093.016.094.011.094.007.095.002.095v1.947l-.002.095-.007.095-.011.094-.016.094-.021.093-.024.092-.029.091-.033.089-.038.088-.041.085-.046.084-.05.081-.053.079-.057.076-.061.074-.064.07-.067.067-.07.064-.074.061-.076.057-.079.053-.081.05-.084.045-.085.042-.088.038-.089.033-.091.029-.092.024-.093.021-.094.015-.094.012-.095.007-.095.002h-1.556l-.095-.002-.095-.007-.094-.012-.094-.015-.093-.021-.092-.024-.091-.029-.089-.033-.088-.038-.085-.042-.084-.045-.081-.05-.079-.053-.076-.057-.073-.061-.071-.064-.067-.067-.064-.07-.061-.074-.057-.076-.053-.079-.05-.081-.045-.084-.042-.085-.037-.088-.034-.089-.029-.091-.024-.092-.021-.093-.015-.094-.012-.094-.006-.095-.003-.095v-1.947l.003-.095.006-.095.012-.094.015-.094.021-.093.024-.092.029-.091.034-.089.037-.087.042-.086.045-.084.022-.035-.013-.033-.029-.09-.026-.091-.021-.092-.016-.093-.013-.093-.007-.095-.165-2.794v-5.078l.003-.095.006-.095.012-.095.015-.093.021-.093.024-.092.029-.091.034-.089.037-.088.042-.085.045-.084.05-.081.053-.079.057-.076.061-.074.064-.07.067-.067.071-.064.073-.061.076-.057.079-.053.081-.05.084-.046.085-.041.088-.038.089-.033.091-.029.092-.025.093-.02.094-.016.094-.011.095-.007.095-.002h1.556l.095.002zm-1.651 11.492v1.947h1.556v-1.947h-1.556zm0-9.494v5.019l.161 2.736h1.234l.161-2.736v-5.019h-1.556z"/>
	</g>
	<g>
		<path d="M304.459 189.503h1.555v5.019l-.161 2.736h-1.234l-.16-2.736v-5.019zm0 9.494h1.555v1.947h-1.555v-1.947z" fill="#72b500" fill-rule="nonzero"/>
		<path d="M306.109 187.505l.095.007.095.011.094.016.093.02.092.025.09.029.089.033.088.038.086.041.083.046.081.05.079.053.076.057.074.061.07.064.068.067.064.07.06.074.057.076.054.079.049.081.046.084.041.085.038.088.033.089.029.091.025.092.02.093.016.093.011.095.007.095.002.095v5.078l-.164 2.794-.008.095-.012.093-.017.093-.021.092-.025.091-.03.09-.012.033.021.035.046.084.041.086.038.087.033.089.029.091.025.092.02.093.016.094.011.094.007.095.002.095v1.947l-.002.095-.007.095-.011.094-.016.094-.02.093-.025.092-.029.091-.033.089-.038.088-.041.085-.046.084-.049.081-.054.079-.057.076-.06.074-.064.07-.068.067-.07.064-.074.061-.076.057-.079.053-.081.05-.083.045-.086.042-.088.038-.089.033-.09.029-.092.024-.093.021-.094.015-.095.012-.095.007-.095.002h-1.555l-.096-.002-.095-.007-.094-.012-.094-.015-.093-.021-.092-.024-.091-.029-.089-.033-.087-.038-.086-.042-.083-.045-.082-.05-.079-.053-.076-.057-.073-.061-.071-.064-.067-.067-.064-.07-.061-.074-.057-.076-.053-.079-.049-.081-.046-.084-.042-.085-.037-.088-.033-.089-.029-.091-.025-.092-.02-.093-.016-.094-.011-.094-.007-.095-.002-.095v-1.947l.002-.095.007-.095.011-.094.016-.094.02-.093.025-.092.029-.091.033-.089.037-.087.042-.086.046-.084.021-.035-.012-.033-.03-.09-.025-.091-.021-.092-.017-.093-.012-.093-.008-.095-.164-2.794v-5.078l.002-.095.007-.095.011-.095.016-.093.02-.093.025-.092.029-.091.033-.089.037-.088.042-.085.046-.084.049-.081.053-.079.057-.076.061-.074.064-.07.067-.067.071-.064.073-.061.076-.057.079-.053.082-.05.083-.046.086-.041.087-.038.089-.033.091-.029.092-.025.093-.02.094-.016.094-.011.095-.007.096-.002h1.555l.095.002zm-1.65 11.492v1.947h1.555v-1.947h-1.555zm0-9.494v5.019l.16 2.736h1.234l.161-2.736v-5.019h-1.555z"/>
	</g>
	<g>
		<path d="M311.239 189.503h1.556v5.019l-.161 2.736H311.4l-.161-2.736v-5.019zm0 9.494h1.556v1.947h-1.556v-1.947z" fill="#72b500" fill-rule="nonzero"/>
		<path d="M312.89 187.505l.095.007.094.011.094.016.093.02.092.025.091.029.089.033.087.038.086.041.084.046.081.05.079.053.076.057.073.061.071.064.067.067.064.07.061.074.057.076.053.079.05.081.045.084.042.085.037.088.034.089.029.091.024.092.02.093.016.093.012.095.006.095.003.095v5.078l-.165 2.794-.008.095-.012.093-.016.093-.021.092-.026.091-.029.09-.013.033.022.035.045.084.042.086.037.087.034.089.029.091.024.092.02.093.016.094.012.094.006.095.003.095v1.947l-.003.095-.006.095-.012.094-.016.094-.02.093-.024.092-.029.091-.034.089-.037.088-.042.085-.045.084-.05.081-.053.079-.057.076-.061.074-.064.07-.067.067-.071.064-.073.061-.076.057-.079.053-.081.05-.084.045-.086.042-.087.038-.089.033-.091.029-.092.024-.093.021-.094.015-.094.012-.095.007-.095.002h-1.556l-.095-.002-.095-.007-.095-.012-.093-.015-.093-.021-.092-.024-.091-.029-.089-.033-.088-.038-.085-.042-.084-.045-.081-.05-.079-.053-.076-.057-.074-.061-.07-.064-.067-.067-.064-.07-.061-.074-.057-.076-.053-.079-.05-.081-.046-.084-.041-.085-.038-.088-.033-.089-.029-.091-.025-.092-.02-.093-.016-.094-.011-.094-.007-.095-.002-.095v-1.947l.002-.095.007-.095.011-.094.016-.094.02-.093.025-.092.029-.091.033-.089.038-.087.041-.086.046-.084.022-.035-.013-.033-.03-.09-.025-.091-.021-.092-.017-.093-.012-.093-.008-.095-.164-2.794v-5.078l.002-.095.007-.095.011-.095.016-.093.02-.093.025-.092.029-.091.033-.089.038-.088.041-.085.046-.084.05-.081.053-.079.057-.076.061-.074.064-.07.067-.067.07-.064.074-.061.076-.057.079-.053.081-.05.084-.046.085-.041.088-.038.089-.033.091-.029.092-.025.093-.02.093-.016.095-.011.095-.007.095-.002h1.556l.095.002zm-1.651 11.492v1.947h1.556v-1.947h-1.556zm0-9.494v5.019l.161 2.736h1.234l.161-2.736v-5.019h-1.556z"/>
	</g>
	<path d="M183.904 255.867h-.003c-2.192 0-3.995 1.803-3.995 3.995V267.863c0 2.192 1.804 3.996 3.996 3.996h.004c2.192 0 3.996-1.804 3.996-3.996v-7.998-.003c0-2.192-1.803-3.995-3.995-3.995h-.003zm23.987 0h-.003c-2.192 0-3.995 1.803-3.995 3.995v8c0 2.193 1.804 3.997 3.997 3.997h.003c2.192 0 3.996-1.804 3.996-3.996v-7.998-.003c0-2.192-1.803-3.995-3.995-3.995h-.003zm119.939 0h-23.991c-2.192 0-3.995 1.803-3.995 3.995v.006c0 2.192 1.803 3.995 3.995 3.995h23.993c2.192 0 3.995-1.803 3.995-3.995v-.003-.003c0-2.192-1.803-3.995-3.995-3.995h-.002z" fill-rule="nonzero"/>
	<path d="M303.842 255.867h-.003c-2.192 0-3.995 1.803-3.995 3.995V267.863c0 2.192 1.804 3.996 3.996 3.996h.004c2.192 0 3.996-1.804 3.996-3.996v-7.998-.003c0-2.192-1.803-3.995-3.995-3.995h-.003zm23.988 0h-.003c-2.192 0-3.995 1.803-3.995 3.995v8.002c0 2.192 1.803 3.995 3.995 3.995h.004c2.192 0 3.996-1.804 3.996-3.996v-7.998-.003c0-2.192-1.803-3.995-3.995-3.995h-.002zm42.804 1.171l-15.991-15.991a3.996 3.996 0 0 0-6.824 2.827c0 1.059.421 2.077 1.171 2.826l15.992 15.991a3.985 3.985 0 0 0 2.826 1.172 3.996 3.996 0 0 0 2.826-6.825zm-207.891-15.991a3.996 3.996 0 0 0-5.653 0l-15.991 15.991a3.996 3.996 0 0 0 0 5.653 3.985 3.985 0 0 0 2.826 1.172 3.989 3.989 0 0 0 2.827-1.172l15.991-15.991a3.996 3.996 0 0 0 0-5.653zM369.596 80.381c-1.962-.976-4.38-.17-5.364 1.788l-31.983 63.966c-.979 1.962-.173 4.383 1.788 5.365a3.996 3.996 0 0 0 5.364-1.788l31.983-63.967c.98-1.962.173-4.382-1.788-5.364zm-190.111 65.754l-31.983-63.966c-.985-1.958-3.402-2.764-5.365-1.788a4.002 4.002 0 0 0-1.788 5.364l31.983 63.967c.981 1.962 3.403 2.769 5.365 1.788a4.003 4.003 0 0 0 1.788-5.365z" fill-rule="nonzero"/>
	<path d="M231.879 239.875h-71.964c-2.192 0-3.996 1.804-3.996 3.996v.005c0 2.192 1.803 3.995 3.995 3.995h71.965a3.995 3.995 0 0 0 3.998-3.998 3.996 3.996 0 0 0-3.998-3.998zm119.938 0H279.852c-2.192 0-3.996 1.804-3.996 3.996v.005c0 2.192 1.803 3.995 3.995 3.995h71.966a3.995 3.995 0 0 0 3.997-3.998 3.995 3.995 0 0 0-3.997-3.998zM327.83 327.83H183.901c-2.192 0-3.995 1.803-3.995 3.995v63.972c0 2.192 1.803 3.995 3.995 3.995H327.832c2.192 0 3.995-1.803 3.995-3.995v-63.969-.003c0-2.192-1.803-3.995-3.995-3.995h-.002zm-3.998 63.967h-135.93v-55.971h135.93v55.971z" fill-rule="nonzero"/>
	<path d="M295.846 343.822h-.002c-2.192 0-3.996 1.804-3.996 3.996v31.985a3.996 3.996 0 0 0 3.998 3.998 3.996 3.996 0 0 0 3.998-3.998V347.82v-.003c0-2.192-1.803-3.995-3.995-3.995h-.003z" fill-rule="nonzero"/>
	<path d="M295.846 343.822c-11.025 0-19.989 8.964-19.989 19.989 0 11.026 8.964 19.99 19.989 19.99s19.99-8.964 19.99-19.99c0-11.025-8.965-19.989-19.99-19.989zm0 31.982c-6.613 0-11.993-5.38-11.993-11.994 0-6.613 5.38-11.993 11.993-11.993 6.614 0 11.994 5.38 11.994 11.993 0 6.614-5.38 11.994-11.994 11.994zm-87.955-23.986c-6.613 0-11.993 5.38-11.993 11.993 0 6.614 5.38 11.994 11.993 11.994 6.615 0 11.995-5.38 11.994-11.994 0-6.613-5.38-11.993-11.994-11.993zm0 15.99c-2.192-.003-3.995-1.806-3.998-3.998a4.003 4.003 0 0 1 3.998-3.997 4.003 4.003 0 0 1 3.998 3.997c-.003 2.192-1.806 3.995-3.998 3.998z" fill-rule="nonzero"/>
	<path d="M207.891 367.809h-.002c-2.192 0-3.996 1.804-3.996 3.996v8c0 2.192 1.804 3.996 3.996 3.996h.005c2.192 0 3.995-1.803 3.995-3.995V371.807v-.002c0-2.192-1.804-3.996-3.996-3.996h-.002zm38.376-319.033c-1.756-1.31-4.277-.949-5.595.801-3.05 4.064-7.711 6.395-12.791 6.395-8.82 0-15.992-7.172-15.992-15.991 0-8.82 7.172-15.992 15.992-15.992h.003c2.192 0 3.995-1.803 3.995-3.995v-.003-.003c0-2.192-1.803-3.995-3.995-3.995h-.003c-13.227 0-23.987 10.76-23.987 23.987 0 13.227 10.76 23.987 23.987 23.987 7.621 0 14.614-3.498 19.186-9.596a3.992 3.992 0 0 0-.8-5.595zm37.593-32.784h-.002c-2.192 0-3.996 1.804-3.996 3.996v.004c0 2.192 1.804 3.996 3.996 3.996h.002c8.815 0 15.983 7.172 15.983 15.992 0 8.819-7.168 15.991-15.983 15.991-5.075 0-9.737-2.327-12.798-6.387-1.322-1.749-3.846-2.105-5.6-.789-1.751 1.32-2.107 3.847-.788 5.599 4.583 6.083 11.573 9.573 19.186 9.573 13.22 0 23.979-10.761 23.979-23.988S297.08 15.992 283.86 15.992z" fill-rule="nonzero"/>
	<path d="M283.86 15.992h-55.979a3.996 3.996 0 0 0-3.998 3.998 3.997 3.997 0 0 0 3.998 3.998h55.982c2.192 0 3.995-1.803 3.995-3.995v-.003-.003c0-2.192-1.803-3.995-3.995-3.995h-.003zm-15.976 31.983h-24.025c-2.192 0-3.995 1.803-3.995 3.995v.006c0 2.192 1.803 3.995 3.995 3.995h24.028c2.192 0 3.995-1.803 3.995-3.995v-.003-.003c0-2.192-1.803-3.995-3.995-3.995h-.003zm-40.003-19.99h-.003c-2.192 0-3.995 1.803-3.995 3.995V47.977c0 2.192 1.804 3.996 3.996 3.996h.005c2.192 0 3.995-1.803 3.995-3.995V31.983v-.003c0-2.192-1.803-3.995-3.995-3.995h-.003z" fill-rule="nonzero"/>
	<path d="M226.709 161.089a3.996 3.996 0 0 0-5.653 0l-39.979 39.979a3.995 3.995 0 0 0-1.173 2.828c0 2.192 1.804 3.996 3.996 3.996h.004a3.98 3.98 0 0 0 2.826-1.171l39.979-39.979a3.996 3.996 0 0 0 0-5.653zm-23.987-.001a3.996 3.996 0 0 0-5.653 0l-15.992 15.992a3.995 3.995 0 0 0-1.173 2.828c0 2.192 1.804 3.996 3.996 3.996h.004a3.98 3.98 0 0 0 2.826-1.171l15.992-15.992a3.996 3.996 0 0 0 0-5.653z" fill-opacity=".5" fill-rule="nonzero"/>
	<path d="M235.877 35.981h-15.991a3.995 3.995 0 0 0-3.998 3.998 3.995 3.995 0 0 0 3.998 3.998h15.991a3.995 3.995 0 0 0 3.998-3.998 3.995 3.995 0 0 0-3.998-3.998zm52.222-3.998h-.078c-2.217 0-3.966 1.788-3.966 3.998s1.835 3.998 4.044 3.998c2.193-.001 3.997-1.805 3.998-3.998-.001-2.193-1.805-3.997-3.998-3.998zm-7.995 7.996h-.078c-2.218 0-3.967 1.788-3.967 3.998 0 2.209 1.835 3.998 4.045 3.998 2.193-.001 3.997-1.805 3.998-3.998-.001-2.193-1.805-3.997-3.998-3.998zm79.709 439.772H151.921a3.995 3.995 0 0 0-3.998 3.998 3.995 3.995 0 0 0 3.998 3.997H359.816c2.192 0 3.995-1.803 3.995-3.995v-.005c0-2.192-1.803-3.995-3.995-3.995h-.003z" fill-rule="nonzero"/>
</svg>
