<svg viewBox="0 0 1000 905" class="australia"
	xmlns="http://www.w3.org/2000/svg" fill-rule="evenodd" clip-rule="evenodd" stroke-linejoin="round" stroke-miterlimit="1.414">
	<path d="M331.224 136.111l3.385-1.603 3.208-1.426 3.028-.891 3.029-.534h4.277l3.563 1.069 4.276 2.494 4.455 4.098 3.563 4.277 2.494 4.81 2.139 4.455 3.919 5.167 4.098 2.138 6.949 1.603 8.731-.534 8.017-.535h4.277l2.494-.891.891-.712.356-4.098-.534-3.029-1.069-2.138s-.535-1.069-1.248-1.069c-.712 0-2.85-.535-2.85-.535l-1.782-.713-.713-2.138.713-6.058 1.425-3.919 2.495-4.633 3.741-4.632 2.495-3.208.712-1.959 1.604-.891 3.742-.357 2.494.179h1.604l.891-1.248-.891-2.494-1.604-3.564-.178-4.098.713-3.741 1.603-3.564 3.564-3.563 5.345-3.207 7.483-1.782 6.236-.891 7.305-.713 5.167-.534 7.127-.713 6.236-1.069 4.455-2.672 2.85-3.742 1.069-3.564-.356-4.454-1.247-2.494-2.138-2.673-2.495-2.138-1.96-.713-3.028.179-2.139-.179-1.247-1.069.178-2.316 1.782-2.138 1.96-1.604 2.494-.534 2.673.534 4.989 2.673 5.701 4.454 3.564 1.96 2.316 2.495 1.069 1.069h1.426l.89-2.317-.178-3.028-.356-2.495 1.247-.534 1.426 1.069 1.425 2.85 1.247 2.317.357 1.425 1.603 1.069h3.385l2.673 1.069 5.167 2.316 4.098 2.138 4.098.535 17.283.178 1.247.178.891 1.96 1.069 2.851 2.316 2.138 3.029 1.247 4.454.178 5.524.179 3.029.356 2.494.356 1.247-1.069.357-1.247 2.316-.713 2.494.179 1.96.178.535 1.069.534 2.851.713 2.316 2.138.891 1.96.356 1.96-.178 1.425-.535 1.069-2.138.713-2.138 1.425-1.069 2.673-1.069 2.673-.178 2.494.713 2.138 1.069 1.247 1.603.179 3.029-.713 5.345-.535 5.88-1.069 5.702v1.603l-.712 1.069-.891.891-3.742.356-7.84-.356h-4.632l-2.138.356-1.069 1.426-1.782 8.908-1.782 8.731-3.207 6.236-5.345 7.127-4.454 4.632-2.851 2.317-1.425 1.247.356 1.247 4.098-.713 5.167.713 6.414 1.782 7.84 3.385 16.035 9.8 8.375 5.701 6.057 3.742 7.84 3.385 7.305 2.673 6.058 3.207 4.098 3.385 5.345 4.989 5.702 4.276 3.741 2.851 3.742 1.782 1.96 1.069.713 3.029 2.85 5.701 2.317 2.851 4.632 3.029 4.989 1.247h10.512l8.374-.178 4.455-.178 1.069-.535 1.069-3.563 1.247-6.593 1.96-7.839 3.742-8.374 3.563-8.553 2.494-7.661 1.069-7.84.713-10.512.178-11.938 3.386-23.697.891-7.305.356-5.523v-3.564l1.069-1.781.891-.713 2.316-.356 1.604-.713.356-1.96.891-9.443 1.425-8.552 2.851-7.484 2.316-5.879 2.851-5.88 1.247-3.385 1.069-2.495.713-1.425 1.96-1.069 3.92.178 3.029 1.96 2.672 3.741 2.138 5.702.891 5.702.356 4.097v4.455l.357 1.603.891.535 3.207-.356 2.851-.179 1.069.179 1.425.178.356 1.603-.891 2.317-.712 2.138v5.167l.356 3.741 1.96 5.345 2.673 6.415 3.207 7.483 1.96 5.88 1.247 6.236.356 6.949v5.879l.178 3.029.535 1.96 1.96.535h4.276l3.563-.891s2.495-.357 3.208-.357c.712 0 4.276-.178 4.276-.178l3.385.891 2.673 2.138 2.85 3.92 3.208 5.702 3.385 5.523 1.425 3.207.891 4.989.178 7.305.891 9.621.713 5.167.534 3.742 2.138 4.989 2.317 2.316 1.96 2.316 3.741 1.248 1.426 1.781 1.247 6.058.712 7.662.179 14.432.534 8.552 1.782 8.196 3.742 6.236 4.81 6.236 6.058 5.345 4.098 2.495 3.385 1.069h2.673l1.069.178.891 1.604.891 4.988 1.603 1.96 3.564 2.138 5.88 3.386 4.454 2.85 3.92 4.277 3.741 5.345 3.029 7.839 4.811 10.334 4.811 9.087 3.385 7.84 3.563 8.909 1.96 8.552-.356 2.672.534 1.426 1.069-.535.357-3.029.713-2.494 1.425-.535 2.494.713 1.248 1.426 1.603 4.454 1.604 4.098 1.247 3.207.713 1.782 1.781.356 1.069-3.207-.534-5.702.356-4.276.535-1.603 2.316-.535h1.96l1.069 1.069.534 3.742.179 12.116.712 7.483 1.247 7.661 2.139 6.771 2.672 4.276 3.92 4.276 3.207 4.098 4.454 5.88 6.236 10.156 5.346 8.196 4.098 4.989 4.276 3.919 2.138 1.07 2.316.178s1.604-.178 1.604-1.069.178-2.673.178-2.673.178-2.851.891-3.207c.712-.356 1.782-1.782 1.782-1.782l3.028-1.069h3.386l1.781 1.069.535 1.247-1.069 2.851-1.247 3.564-.535 3.563-1.782 4.811-3.385 2.316-2.316.178-1.604.178s-1.247-.178-1.425.713c-.178.891-1.247 4.276-1.247 4.276l.712 6.949.713 15.145-.356 14.788.891 11.76.712 5.879-.712 10.513-1.248 9.621-3.028 9.621-3.742 11.225-3.92 8.196-2.673 5.88-1.603 6.236-1.604 12.116-1.069 9.621-1.425 7.127-3.207 6.949-7.305 6.236-8.018 5.523-5.345 3.92-5.167 4.811-3.029 4.098-2.495 4.632-2.494 6.236-2.316 7.127-3.92 8.018-6.236 8.374-3.386 4.633-3.563 4.988-2.851 6.949-5.523 6.949-6.058 5.345-4.276 4.633-2.138 3.563-.178 6.236.178 6.593-1.426 8.196-1.96 6.77-2.138 4.276-4.454 4.811-7.127 2.316-10.334.178-13.541.535-9.443 1.604-7.305 2.138-7.84 4.454-3.92 2.316-2.851.357-2.494.712-1.247 2.138-.535 4.989-.178 1.782-1.425.891h-3.386l-6.058-2.138-5.523-1.069s-1.603-.713-1.603-1.426v-3.92l-1.604-4.454-2.316-2.316-1.782-.891-1.069 1.604.178 4.632.178 3.92-.712 1.069-1.96-.535-3.207-2.494-3.386-2.673-2.138-2.316.535-.713h2.672l.891-1.96.357-3.919-1.069-2.851-3.029-4.633-1.069-.534-1.96 1.782-.179 6.058.179 4.81-1.96 3.742-3.564 2.494-1.96 1.604h-12.472l-9.443-.535-2.673-1.603s-3.029-3.92-3.741-4.455c-.713-.534-3.564-1.069-4.276-1.603-.713-.535-3.386-.357-4.277-.713-.89-.356-6.948-.356-6.948-.356l-3.386-.178-6.948-2.851-5.524-3.207-5.345-2.138-5.523-.535s-4.989.356-5.88-.178c-.891-.535-5.345-2.316-5.345-2.316l-5.702-6.593-1.603-4.989.356-7.661.178-9.621.357-9.444-2.139-6.592s-2.85-3.029-3.563-3.563c-.713-.535-4.098-2.139-4.098-2.139l-4.632-1.247-2.673-2.138-.178-1.603v-2.673l.356-2.138-.713-.713-1.603.713-5.524 3.385-3.028 1.782s-2.139 1.069-3.208 1.069c-1.069 0-3.919.178-4.632.178-.713 0-3.564-.356-3.564-.356l-.712-1.247-.178-3.564.178-4.098.356-1.96 2.673-1.781 2.316-2.673 1.069-3.742-.356-5.701-.535-5.345-.178-4.989-.535-3.029-1.247-1.426-2.494-.712-2.316.891-1.248.534-.891 2.138.357 5.167-.713 4.455-.713 3.919-1.603 2.673-1.96 2.494-3.385 1.782-3.207.535-6.593.356-3.385-.178-.891-1.426.534-2.494 3.029-2.851 3.92-3.92 4.455-3.563 4.81-5.167 2.851-3.92 2.673-5.701 1.96-7.484.534-6.414-.356-6.949.534-5.879-.356-4.277-.356-3.029-1.426-.534-1.247 2.316-3.207 6.058-4.633 6.414-8.908 10.691-3.742 4.632-6.414 5.88-4.276 3.385-2.495 1.782-1.782 2.316-1.781 2.495-.535 3.029.357 4.098v3.207l-1.426 1.247-3.92.178-4.276-3.029-4.454-4.989-3.564-8.018-2.316-9.265-1.96-7.839-2.851-5.702-5.523-5.701-4.098-1.604-4.276-.178-1.782-1.069-1.069-2.494 1.247-2.851s1.069-.713 2.138-1.604c1.069-.891 2.673-1.247 2.673-1.247l1.425-.713.713-1.781.178-2.673-1.247-1.069-3.385-.713-2.495.178-2.316-.534s-1.069-1.247-1.247-1.96c-.178-.713 0-4.098 0-4.098l-.356-1.96-3.564-.713-6.236-.178-6.058-2.138-6.77-.891-9.622.357h-5.88l-3.385-1.069-2.138-1.96-.713-2.317.179-3.385s.712-1.425 0-2.138c-.713-.713-1.96-2.138-1.96-2.138l-5.167-2.316-6.058-1.426-5.345.179-6.593.356-4.276 1.069-9.265 2.494-14.788 5.88-8.375 4.098-8.552 3.92-8.73 2.672-6.771 1.069h-9.443l-4.989.357-3.029 1.603-3.029 3.386s-1.247 2.316-2.138 2.316c-.891 0-8.73 1.96-8.73 1.96l-12.116 1.96-9.8 3.563-10.69 4.276-8.909 5.167-6.236 3.742-3.385 4.276-2.495 4.989-2.494 4.633-1.247 2.672-1.069 1.604-4.633 1.603-8.908 2.317s-9.622.712-11.225.89c-1.604.179-12.294.179-12.294.179l-7.84-.713-9.265.534-6.949.891-9.265 3.564-12.65 5.701-6.771 5.702-4.632 3.385-2.851 2.851-3.207 4.811-3.92 5.167-3.741 2.672-3.386 1.426-6.77.178-18.352.178-6.236-.178-8.018-1.782-5.523-3.92-6.058-4.632-3.029-1.96-6.949-.535-5.88-3.029-2.672-2.85-.713-2.139.178-6.057.178-3.029s-.534-1.426.178-2.138c.713-.713 4.098-2.495 4.098-2.495s1.96-.356 2.673-.891c.713-.534 3.207-1.96 3.207-1.96l1.96-2.494v-6.949l-.178-4.632-1.247-2.673-1.247-3.029.178-5.345.178-9.265-.356-7.84v-1.603l-1.248-2.673-5.345-6.058-4.811-4.632-3.919-3.564-3.029-3.207-1.069-2.494-1.248-3.742s-.356-4.276-.89-5.167c-.535-.891-2.139-5.167-2.139-5.167s-2.138-3.029-2.85-3.742c-.713-.712-4.633-5.167-4.633-5.167l-3.029-3.207-1.247-1.96s-1.069-2.316-.891-3.029c.178-.712.535-4.988.535-4.988l-.535-3.742-1.603-1.604-3.92-1.781-4.276-2.851-2.673-2.316-2.494-2.851-1.604-3.564-.534-4.81-.179-4.098.713-2.673-.534-1.247-3.208-.178s-2.138-.535-3.029-.891c-.89-.357-2.316-1.247-2.316-1.247l-1.96-3.029v-6.771l-.891-2.316-1.781-2.138-5.702-4.098-6.592-6.949-3.742-4.454-2.138-2.317-.713-1.959-.178-2.139 1.604-1.603 3.029-.178 3.385 1.425 3.207 4.276 4.811 4.455 4.098 3.029 3.029.89 2.494-.356.891-1.604.178-3.919-.178-5.702s-.178-2.494-.535-3.207c-.356-.713 0-.713-1.781-1.782a12.537 12.537 0 0 0-3.564-1.425l-2.672.178-1.604-1.247.356-12.294-.178-1.069-1.96-1.426-2.494-.356-4.276-2.851-3.564-5.523-2.494-5.88-.891-3.207 1.425-3.385 2.317-4.633.534-4.632.535-9.265-.178-18.352v-8.196l.534-5.88.356-2.672.535-1.782.891-.178 1.603.712 1.426 3.742 1.247 4.633 1.604 2.494 1.247.178 1.603-2.316.891-4.276 2.316-6.236 3.742-7.484 9.621-9.086 7.484-8.909 4.632-4.454 6.236-4.811 7.305-3.92 6.949-1.782h8.196l6.236-1.425s4.633-2.494 5.345-2.851c.713-.356 4.098-3.741 4.098-3.741l4.811-3.208 5.523-1.603 4.989-2.851 4.455-4.276 2.138-3.207 3.919-4.098 5.167-2.851 4.277-1.069 5.701-.178 7.305-.535 9.087-1.96 7.305-1.959 7.127-4.277 7.662-5.879 8.017-9.622 4.455-5.701 3.563-7.84 1.782-6.949.534-8.908.179-9.622.89-7.305 3.029-7.305 3.564-4.989 3.029-3.385 2.138-2.138 1.782-.178 1.781 1.603 4.098 5.524 2.851 2.672 3.029 2.673 1.96 1.425s.713.891 1.247 0l1.069-1.781.357-6.771-.891-11.225.178-3.742 1.603-1.781 4.633-.357 6.949.357h3.92l1.603-.891.713-4.098.178-5.88-.356-2.672-1.96-.713h-2.138l-1.782-.713s-.356-1.425.178-2.316c.535-.891 3.385-3.564 3.385-3.564l3.029-3.385 1.96-3.563.891-2.138s.356-.713 1.069-1.426 3.029-.891 3.029-.891l6.949.535h3.207l1.782-1.069.178-5.524-.178-3.563s-.179-1.604.534-2.138c.713-.535 1.782-1.604 2.495-1.604.712 0 3.563.357 3.563.357l3.92.534 1.425-1.069v-3.029l.178-3.741 3.208-2.851 4.988-3.385 9.978-5.346z" fill="green" fill-rule="nonzero"/>
	<path d="M421.554 63.529l2.268-2.142 2.394-.881h3.024l2.645.881 4.284.882 5.291.126 4.032-.252 3.024-1.386s1.134-1.133 1.637-1.259c.504-.126 1.638-.252 1.638-.252l1.89.504 1.134 1.511.126 3.528.126 2.52-.882 1.764-2.016 2.141-1.89.756s-1.259.378-1.889.378c-.63 0-2.016.378-2.016.378l-1.638 1.386-3.402 1.89-2.267.756-2.268.126-1.89-.126s-1.89-.756-2.394-1.386c-.504-.63-2.394-3.15-2.394-3.15l-2.141-1.637-3.024-1.512-2.394-2.016-1.008-2.394v-1.134zM576.141 123.373h-2.016l-1.008-.756v-1.763l.504-1.26.756-.63 1.386.252.756 1.386.252 1.763-.63 1.008zM580.425 128.791v-3.15l.882-2.016 1.385-1.89 1.386-.881 2.142-.126 1.512.252 2.016.629 1.26.756.629 1.134-.377 1.008-1.134 1.134-.756 1.386-.252 1.764.756 1.386 1.134 1.26 1.133.881.63 1.134-.126 2.016s-.126 1.386-.63 1.512c-.504.126-1.007.63-1.511.63s-3.024-.126-3.024-.126l-2.898-1.386-2.394-1.764-1.637-2.268-.252-2.267.126-1.008zM646.947 195.158l1.426-2.138 2.761-1.248 1.782-1.069 2.049-.801 1.514-.535 1.604-.267 1.247.267.891.713-.534 1.336-1.248.713-2.138 1.247-1.96.623-1.514.98-1.96 1.159-1.158.534-1.425.178-1.248-.267-.534-.713.445-.712zM803.472 790.078l-.178-1.692.089-1.515.802-.98h.98l1.515.357 1.959 2.672 1.515 2.405 1.069 2.049.98 1.426 1.069.534.356 1.069-.98.98-1.336.98-.624.713-1.069.445s-1.158.09-1.514-.089c-.356-.178-.98-.534-.98-.98 0-.445.267-1.96.267-1.96s-.089-.712-.267-1.069c-.178-.356-.802-1.692-.802-1.692l-.98-1.426-.98-1.069-.534-.445-.357-.713zM807.66 803.53l.712-1.514.535-.98.98-.624h1.96l1.514-.089 1.158.089.624.089.623 1.426-.356 1.069-1.425.623-.891.446-1.337.356h-2.048l-1.96-.178-.09-.713h.001zM723.918 787.138l-.267-1.781.356-2.228.178-2.672s.624-.713.713-1.158c.089-.446-.089-.891.178-1.337.267-.445 1.426-1.158 1.426-1.158s.712.089 1.069.089c.356 0 1.425.891 1.425.891l.356 2.049s.179.713.179 1.426c0 .712.089 2.405 0 2.85-.09.446-.891 1.782-.891 1.782l-1.158 1.247s-.535.446-1.069.535c-.535.089-1.604 0-1.604 0l-.891-.535zM738.413 808.368l1.512-2.646s1.134-1.26 1.638-1.26h1.763l2.016 1.638.504 1.26 2.268.756 3.654.378 2.519 1.007 3.15 2.646 3.528 2.646 3.149 2.646 3.15 1.763 3.654.378s3.023.126 3.527-.252c.504-.377 1.386-1.133 2.016-1.385.63-.252 3.15-1.008 3.15-1.008l3.276-.378 3.023-.63 4.788-.378 4.283-.63 2.772-.63 2.268-1.386 2.268-1.26h2.393l2.646 1.008 1.638 1.008 1.26 2.394.252 3.275-.126 3.402-.63 3.402-1.26 4.031-1.008 2.646-.252 3.654.126 4.157.252 2.52-.63 1.134-2.394.63-1.511.126-2.016 1.638-1.386 1.89-1.26 1.889-.378 2.52.63 1.89 1.764.756.882 1.008v1.008l-.126 1.512-1.638.881-.504 1.638v4.158c0 .756-.504 1.638-.504 1.638l-.252.63-1.638.126-1.764-.126s-.63-1.764-.504-2.268c.126-.504-.252-1.89-.504-2.394-.251-.504-.629-1.008-1.259-1.008h-1.89l-1.386.378-2.268 1.638-1.512 1.134-2.267 2.898-2.016 1.763-1.638 3.906-1.008 2.016-2.016 1.008-2.394-.126-2.771-1.134-2.016-1.638-1.134-.882h-1.008-1.386c-.504 0-1.386.126-1.386.126l-.882-.252s-1.007 0-1.385-.63a5.696 5.696 0 0 0-.756-1.008l-1.512-.882s.126.126-1.134-.756c-1.26-.881-2.772-1.763-2.772-1.763s-1.134-.756-1.26-1.26c-.126-.504-2.141-3.15-2.141-3.15l-2.016-3.906-1.008-3.149-.252-3.15.126-2.898-.756-2.141-1.512-1.512s-1.638-.63-1.89-1.26-.504-1.89-.504-1.89l.882-1.26s.756-.63 1.512-.882 1.008-.504 1.008-.504.252-.378.252-1.134v-1.763l-1.008-2.268s-.252-1.26-.378-1.764-2.394-4.662-2.394-4.662l-2.645-2.015-2.016-2.268-1.134-1.386-.63-3.654.126-4.409.126-5.04-.126-2.519z" fill="green" fill-rule="nonzero"/>
	<path d="M785.658 875.393l-1.26-1.134-.252-1.764.378-1.89.504-.756 1.512.378.756 1.386v1.638l-.252 1.26-.63 1.008-.756-.126z" fill="none"/>
	<path d="M578.283 679.356l2.268-2.519 1.637-1.89 2.268-1.386 2.268-.252 1.386-.63h3.276l3.275-.126 2.142.63s1.512.378 2.772.756c1.26.378 1.638.504 2.141.504h1.512l1.386.378.63.756-.378 1.764s-.63 1.511-1.134 1.763l-1.764.882-1.385 1.134s.63.63-.378.882a39.163 39.163 0 0 1-1.638.378l-1.386-.756v-.63l-1.638-.126h-1.512l-1.134 1.134-5.795-.252-5.292.126-2.141-.756-1.638-.63-.252-.504.504-.63z" fill="green" fill-rule="nonzero"/>
</svg>
