<svg viewBox="0 0 512 512" class="dodgem"
	xmlns="http://www.w3.org/2000/svg" fill-rule="evenodd" clip-rule="evenodd" stroke-linejoin="round" stroke-miterlimit="1.414">
	<path fill="#1fccbe" d="M6 430h501v60H6z"/>
	<path d="M40 220v205h432s-11.221-130.195-148-145c-.492-.053 0 55 0 55H99V220H40z" fill="#501358"/>
	<path d="M39 25h166l-29 52 33 52H39V25z" fill="#72b500"/>
	<path d="M100 338h101s9.234-71.426-72-72c-12.532-.088-29 0-29 0v72z" fill="#4b3909"/>
	<path d="M480.313 420c-7.418-81.898-82.73-148.753-157.965-149.867L284.215 234l42.39-42.395-11.21-11.21-90 90 11.21 11.21L271 247.215l44 44V330H209.492c.698-44.825-37.273-74-73.492-74h-29v-46H47v-74h177.027l-40-60 40-60H31v404H0v76h512v-76h-31.687zM47 32h147.973l-30 44 30 44H47V32zm89 240c23.898 0 55.815 14.802 57.422 58H107v-58h29zm-89-46h44v120h240v-59.172c62.48 6.938 125.222 61.649 133.163 133.172H47V226zm451 256H14v-46h484v46z" fill-rule="nonzero"/>
</svg>
