<svg viewBox="0 0 2708 2708" class="laser-gun"
	xmlns="http://www.w3.org/2000/svg" fill-rule="evenodd" clip-rule="evenodd" stroke-linecap="round" stroke-linejoin="round">
	<path d="M1847.93 1722.44s-45.136 54.843-51.94 90.563c-11.906 86.748 44.06 344.45 17.01 474.563-9.167 44.092-21.674 104.234-81.645 137.776-55.427 31.001-116.589 25.113-175.764 23.814-55.03-1.209-99.462-14.416-160.404-32.112-81.646-62.935-107.837-70.899-145.2-129.478-11.412-17.893-5.173-48.602 17.732-59.842 40.323-19.788 66.456-28.655 80.735-63.366 16.212-39.41-27.398-72.843-9.313-105.526 14.009-25.318 46.893-24.602 66.526-68.433 18.787-41.943-30.314-64.5-19.088-109.359 7.01-28.013 36.8-37.664 46.904-61.732 28.852-68.725 22.319-224.026 22.319-224.026l392.128 127.158z" fill="#72b500" fill-rule="nonzero" stroke="#000" stroke-width="35"/>
	<path d="M1358.97 1514.71s.468 70.878-44.502 165.979c-28.572 60.422-45.704 63.466-67.354 93.535 5.967 15.347 4.986 13.998 16.467 27.081 13.078 14.905 13.739 12.429 24.852 20.033 44.501-15.636 79.172-17.605 140.296-78.106 56.87-56.289 80.584-174.399 80.584-174.399l-150.343-54.123z" fill="#15a095" fill-rule="nonzero" stroke="#000" stroke-width="35"/>
	<path d="M1338.6 1737.31c34.928-31.315 33.642-33.467 47.453-52.63 13.223-19.62 20.276-33.721 24.755-57.808 2.104-11.312 7.368-21.634-.025-37.426l-5.217-12.135 39.456 20.058s-12.783 44.471-15.892 54.788c-2.636 8.746-11.754 27.721-15.16 33.084-18.906 29.764-37.75 52.808-67.16 72.166-31.167 20.513-56.771 28.849-60.244 25.217 17.61-17.974 37.532-32.312 52.034-45.314z" fill-rule="nonzero" stroke="#000" stroke-width="11.79"/>
	<path d="M2633.16 1410.13c0 109.819-89.399 200.185-198.042 200.185-108.642 0-198.041-90.366-198.041-200.185 0-109.818 89.399-200.185 198.041-200.185 108.643 0 198.042 90.367 198.042 200.185z" fill="#72b500" fill-rule="nonzero" stroke="#000" stroke-width="30"/>
	<path d="M2353.9 1267.71c-5.081 164.176-88.657 317.904-188.516 383.674-62.127 40.919-215.448 103.767-366.817 63.553-349.386-92.82-559.319-179.17-798.618-449.632-137.861-155.814-93.574-407.127 167.896-513.513 111.609-45.411 375.364-30.984 485.024-28.797 450.41 8.984 709.753 262.904 701.031 544.715z" fill="#501458" fill-rule="nonzero" stroke="#000" stroke-width="30" stroke-linecap="butt" stroke-linejoin="miter"/>
	<path d="M1527.65 1049.87c-86.981 309.306-315.629 519.573-506.514 465.793-190.884-53.779-276.385-352.553-189.404-661.859 86.98-309.306 315.628-519.573 506.513-465.793 190.885 53.779 276.385 352.554 189.405 661.859z" fill="#15a095" fill-rule="nonzero" stroke="#000" stroke-width="31.74"/>
	<path d="M1561.03 1099.76c-8.36 22.588 146.735 86.598 271.821 170.791 134.708 79.381 185.223 151.546 209.278 156.357 21.65-15.636-67.354-144.33-56.529-158.763 24.055-3.608 186.426 98.625 208.076 96.22-2.406-33.677-139.519-125.086-139.519-125.086s-187.629-98.625-203.265-96.22c-7.216 12.028 58.935 80.584 56.529 101.031-16.838 0-186.426-120.275-346.391-144.33z" fill="#910f07" fill-rule="nonzero" stroke="#000" stroke-width="16"/>
	<path d="M1061.18 656.366c125.869-20.412 275.347-30.27 321.478 5.102 31.129 23.87 18.5 261.639-51.216 410.607-72.626 155.186-150.333 259.117-195.421 276.575-49.782 19.275-98.655-73.141-183.702-188.805l108.861-503.479z" fill="#501458" fill-rule="nonzero" stroke="#000" stroke-width="30"/>
	<path d="M1161.05 945.996c-61.171 220.677-221.97 370.693-356.212 332.323-134.242-38.369-194.37-251.532-133.2-472.209 61.17-220.676 221.97-370.692 356.212-332.323 134.241 38.37 194.37 251.532 133.2 472.209z" fill="#15a095" fill-rule="nonzero" stroke="#000" stroke-width="31.93"/>
	<path d="M763.619 678.478c112.263-40.823 162.281-49.488 212.618-20.411 44.382 25.636 93.634 137.846 30.721 269.805-73.736 154.662-137.399 178.524-175.301 155.43-47.233-28.778-100.356-88.449-147.982-190.505 43.17-159.222 35.255-137.366 79.944-214.319z" fill="#501458" fill-rule="nonzero" stroke="#000" stroke-width="30"/>
	<path d="M782.374 829.571c-40.168 149.324-145.759 250.835-233.91 224.872-88.152-25.963-127.636-170.202-87.468-319.526 40.168-149.325 145.758-250.836 233.91-224.873 88.151 25.963 127.636 170.203 87.468 319.527z" fill="#15a095" fill-rule="nonzero" stroke="#000" stroke-width="32.35"/>
	<path d="M222.371 730.52l29.863-72.499c44.502-1.203 180.31 43.254 254.532 54.131 65.625 9.618 55.989-1.466 88.457-2.079 31.289-.59 70.026 17.22 72.165 68.557 2.858 68.582-72.668 158.855-105.344 134.708-32.676-24.147-82.662-53.907-131.257-78.573-110.421-56.047-156.698-80.19-208.416-104.245z" fill="#501458" fill-rule="nonzero" stroke="#000" stroke-width="30"/>
	<path d="M376.5 685.915c0 88.303-71.142 160.965-157.598 160.965-86.455 0-157.597-72.662-157.597-160.965s71.142-160.966 157.597-160.966c86.456 0 157.598 72.663 157.598 160.966z" fill="#910f07" fill-rule="nonzero" stroke="#000" stroke-width="30"/>
	<path d="M338.356 719.446c-46.043 96.586-124.598 86.603-124.598 86.603s49.549-13.497 86.745-87.805c21.021-93.809-11.097-134.934-11.097-134.934s68.763 56.192 48.95 136.136z" fill-rule="nonzero" stroke="#000" stroke-width="15"/>
	<g fill-rule="nonzero" stroke="#000" stroke-width="30">
		<path d="M2080.16 708.719l52.412 20.121s-30.528 46.64-42.434 158.902c-30.617 13.608-64.319 1.992-84.73-38.83 73.141-73.141 74.752-140.193 74.752-140.193zm-304.469-118.902l52.412 16.718s-54.341 67.052-52.64 174.211c-30.617 13.608-64.318 1.992-84.73-38.83 73.141-73.141 84.958-152.099 84.958-152.099z" fill="#15a095"/>
		<path d="M2311.59 745.524c0 46.867-38.1 84.86-85.099 84.86-46.998 0-85.098-37.993-85.098-84.86 0-46.866 38.1-84.859 85.098-84.859 46.999 0 85.099 37.993 85.099 84.859z" fill="#910f07"/>
		<path d="M1773.91 567.282c151.476 61.354 221.986 91.115 340.645 124.153 64.248 17.889 99.781 13.114 113.366 36.452 10.722 18.419-8.482 33.797-33.862 39.274-20.571 4.44-49.687-15.196-85.764-28.557-97.423-36.083-229.716-85.434-355.078-120.545-33.135-9.28-39.807-4.549-48.418-18.411-8.275-13.321 1.387-44.085 12.212-46.491 33.919-7.537 24.694 1.081 56.899 14.125z" fill="#15a095"/>
		<path d="M1747.5 567.517c0 46.867-38.099 84.86-85.098 84.86s-85.098-37.993-85.098-84.86c0-46.866 38.099-84.859 85.098-84.859s85.098 37.993 85.098 84.859z" fill="#910f07"/>
	</g>
	<path d="M1372.2 2392.72c0-.001-.142-33.057 10.447-53.731 9.094-17.753 35.844-29.802 41.271-40.084 17.442-33.041 30.443-47.706 38.488-84.192 7.765-35.215-25.365-74.413-16.838-109.451 9.918-40.755 61.044-44.487 74.57-84.192 20.486-60.136-27.419-70.877-8.419-132.302 19.976-64.582 36.172-55.446 57.732-84.193 10.825-14.433 12.027-125.086 12.027-125.086s25.456 80.475 15.636 116.667c-12.372 45.598-55.403 59.241-64.948 95.017-11.392 42.697 28.036 90.259 12.027 145.533-10.696 36.93-64.333 39.915-74.57 76.976-10.689 38.694 28.104 54.227 10.824 111.855-13.642 45.5-19.423 62.009-48.11 96.22-36.759 43.839-27.663 101.031-27.663 101.031l-32.474-30.068z" fill-rule="nonzero" stroke="#000" stroke-width="15"/>
</svg>
